%TF.GenerationSoftware,KiCad,Pcbnew,8.0.5*%
%TF.CreationDate,2024-12-02T19:35:40-06:00*%
%TF.ProjectId,Apple-II-HXC-Gotek-Adapter,4170706c-652d-4494-992d-4858432d476f,v1.0*%
%TF.SameCoordinates,Original*%
%TF.FileFunction,Copper,L2,Bot*%
%TF.FilePolarity,Positive*%
%FSLAX46Y46*%
G04 Gerber Fmt 4.6, Leading zero omitted, Abs format (unit mm)*
G04 Created by KiCad (PCBNEW 8.0.5) date 2024-12-02 19:35:40*
%MOMM*%
%LPD*%
G01*
G04 APERTURE LIST*
G04 Aperture macros list*
%AMRoundRect*
0 Rectangle with rounded corners*
0 $1 Rounding radius*
0 $2 $3 $4 $5 $6 $7 $8 $9 X,Y pos of 4 corners*
0 Add a 4 corners polygon primitive as box body*
4,1,4,$2,$3,$4,$5,$6,$7,$8,$9,$2,$3,0*
0 Add four circle primitives for the rounded corners*
1,1,$1+$1,$2,$3*
1,1,$1+$1,$4,$5*
1,1,$1+$1,$6,$7*
1,1,$1+$1,$8,$9*
0 Add four rect primitives between the rounded corners*
20,1,$1+$1,$2,$3,$4,$5,0*
20,1,$1+$1,$4,$5,$6,$7,0*
20,1,$1+$1,$6,$7,$8,$9,0*
20,1,$1+$1,$8,$9,$2,$3,0*%
G04 Aperture macros list end*
%TA.AperFunction,ComponentPad*%
%ADD10R,1.700000X1.700000*%
%TD*%
%TA.AperFunction,ComponentPad*%
%ADD11O,1.700000X1.700000*%
%TD*%
%TA.AperFunction,ComponentPad*%
%ADD12C,1.700000*%
%TD*%
%TA.AperFunction,ComponentPad*%
%ADD13RoundRect,0.250000X-0.600000X0.600000X-0.600000X-0.600000X0.600000X-0.600000X0.600000X0.600000X0*%
%TD*%
%TA.AperFunction,ViaPad*%
%ADD14C,0.600000*%
%TD*%
%TA.AperFunction,Conductor*%
%ADD15C,0.200000*%
%TD*%
G04 APERTURE END LIST*
D10*
%TO.P,J4,1,Pin_1*%
%TO.N,/PH0-RX*%
X86995000Y-101600000D03*
D11*
%TO.P,J4,2,Pin_2*%
%TO.N,/PH1-TX*%
X84455000Y-101600000D03*
%TD*%
D12*
%TO.P,J2,20,Pin_20*%
%TO.N,/WRPROT*%
X101600000Y-104140000D03*
%TO.P,J2,19,Pin_19*%
%TO.N,unconnected-(J2-Pin_19-Pad19)*%
X101600000Y-101600000D03*
%TO.P,J2,18,Pin_18*%
%TO.N,/WR*%
X104140000Y-104140000D03*
%TO.P,J2,17,Pin_17*%
%TO.N,unconnected-(J2-Pin_17-Pad17)*%
X104140000Y-101600000D03*
%TO.P,J2,16,Pin_16*%
%TO.N,/RD*%
X106680000Y-104140000D03*
%TO.P,J2,15,Pin_15*%
%TO.N,unconnected-(J2-Pin_15-Pad15)*%
X106680000Y-101600000D03*
%TO.P,J2,14,Pin_14*%
%TO.N,/~{DRVEN}*%
X109220000Y-104140000D03*
%TO.P,J2,13,Pin_13*%
%TO.N,unconnected-(J2-Pin_13-Pad13)*%
X109220000Y-101600000D03*
%TO.P,J2,12,Pin_12*%
%TO.N,/SEL*%
X111760000Y-104140000D03*
%TO.P,J2,11,Pin_11*%
%TO.N,+5V*%
X111760000Y-101600000D03*
%TO.P,J2,10,Pin_10*%
%TO.N,/~{WREQ}*%
X114300000Y-104140000D03*
%TO.P,J2,9,Pin_9*%
%TO.N,unconnected-(J2-Pin_9-Pad9)*%
X114300000Y-101600000D03*
%TO.P,J2,8,Pin_8*%
%TO.N,/PH3*%
X116840000Y-104140000D03*
%TO.P,J2,7,Pin_7*%
%TO.N,GND*%
X116840000Y-101600000D03*
%TO.P,J2,6,Pin_6*%
%TO.N,/PH2*%
X119380000Y-104140000D03*
%TO.P,J2,5,Pin_5*%
%TO.N,GND*%
X119380000Y-101600000D03*
%TO.P,J2,4,Pin_4*%
%TO.N,/PH1-TX*%
X121920000Y-104140000D03*
%TO.P,J2,3,Pin_3*%
%TO.N,GND*%
X121920000Y-101600000D03*
%TO.P,J2,2,Pin_2*%
%TO.N,/PH0-RX*%
X124460000Y-104140000D03*
D13*
%TO.P,J2,1,Pin_1*%
%TO.N,GND*%
X124460000Y-101600000D03*
%TD*%
D10*
%TO.P,J3,1,Pin_1*%
%TO.N,+5V*%
X85710000Y-110490000D03*
D11*
%TO.P,J3,2,Pin_2*%
%TO.N,GND*%
X83170000Y-110490000D03*
%TO.P,J3,3,Pin_3*%
X80630000Y-110490000D03*
%TO.P,J3,4,Pin_4*%
%TO.N,unconnected-(J3-Pin_4-Pad4)*%
X78090000Y-110490000D03*
%TD*%
D10*
%TO.P,J1,1,Pin_1*%
%TO.N,GND*%
X92710000Y-111760000D03*
D11*
%TO.P,J1,2,Pin_2*%
%TO.N,unconnected-(J1-Pin_2-Pad2)*%
X92710000Y-109220000D03*
%TO.P,J1,3,Pin_3*%
%TO.N,GND*%
X95250000Y-111760000D03*
%TO.P,J1,4,Pin_4*%
%TO.N,unconnected-(J1-Pin_4-Pad4)*%
X95250000Y-109220000D03*
%TO.P,J1,5,Pin_5*%
%TO.N,GND*%
X97790000Y-111760000D03*
%TO.P,J1,6,Pin_6*%
%TO.N,unconnected-(J1-Pin_6-Pad6)*%
X97790000Y-109220000D03*
%TO.P,J1,7,Pin_7*%
%TO.N,GND*%
X100330000Y-111760000D03*
%TO.P,J1,8,Pin_8*%
%TO.N,unconnected-(J1-Pin_8-Pad8)*%
X100330000Y-109220000D03*
%TO.P,J1,9,Pin_9*%
%TO.N,GND*%
X102870000Y-111760000D03*
%TO.P,J1,10,Pin_10*%
%TO.N,/~{DRVEN}*%
X102870000Y-109220000D03*
%TO.P,J1,11,Pin_11*%
%TO.N,GND*%
X105410000Y-111760000D03*
%TO.P,J1,12,Pin_12*%
%TO.N,unconnected-(J1-Pin_12-Pad12)*%
X105410000Y-109220000D03*
%TO.P,J1,13,Pin_13*%
%TO.N,GND*%
X107950000Y-111760000D03*
%TO.P,J1,14,Pin_14*%
%TO.N,unconnected-(J1-Pin_14-Pad14)*%
X107950000Y-109220000D03*
%TO.P,J1,15,Pin_15*%
%TO.N,GND*%
X110490000Y-111760000D03*
%TO.P,J1,16,Pin_16*%
%TO.N,unconnected-(J1-Pin_16-Pad16)*%
X110490000Y-109220000D03*
%TO.P,J1,17,Pin_17*%
%TO.N,GND*%
X113030000Y-111760000D03*
%TO.P,J1,18,Pin_18*%
%TO.N,/PH2*%
X113030000Y-109220000D03*
%TO.P,J1,19,Pin_19*%
%TO.N,GND*%
X115570000Y-111760000D03*
%TO.P,J1,20,Pin_20*%
%TO.N,/PH3*%
X115570000Y-109220000D03*
%TO.P,J1,21,Pin_21*%
%TO.N,GND*%
X118110000Y-111760000D03*
%TO.P,J1,22,Pin_22*%
%TO.N,/WR*%
X118110000Y-109220000D03*
%TO.P,J1,23,Pin_23*%
%TO.N,GND*%
X120650000Y-111760000D03*
%TO.P,J1,24,Pin_24*%
%TO.N,/~{WREQ}*%
X120650000Y-109220000D03*
%TO.P,J1,25,Pin_25*%
%TO.N,GND*%
X123190000Y-111760000D03*
%TO.P,J1,26,Pin_26*%
%TO.N,unconnected-(J1-Pin_26-Pad26)*%
X123190000Y-109220000D03*
%TO.P,J1,27,Pin_27*%
%TO.N,GND*%
X125730000Y-111760000D03*
%TO.P,J1,28,Pin_28*%
%TO.N,/WRPROT*%
X125730000Y-109220000D03*
%TO.P,J1,29,Pin_29*%
%TO.N,GND*%
X128270000Y-111760000D03*
%TO.P,J1,30,Pin_30*%
%TO.N,/RD*%
X128270000Y-109220000D03*
%TO.P,J1,31,Pin_31*%
%TO.N,GND*%
X130810000Y-111760000D03*
%TO.P,J1,32,Pin_32*%
%TO.N,/SEL*%
X130810000Y-109220000D03*
%TO.P,J1,33,Pin_33*%
%TO.N,GND*%
X133350000Y-111760000D03*
%TO.P,J1,34,Pin_34*%
%TO.N,unconnected-(J1-Pin_34-Pad34)*%
X133350000Y-109220000D03*
%TD*%
D14*
%TO.N,/RD*%
X106680000Y-106207000D03*
%TO.N,/WRPROT*%
X101600000Y-106807000D03*
%TO.N,/~{WREQ}*%
X114300000Y-107470000D03*
%TO.N,/WR*%
X104140000Y-107823000D03*
%TD*%
D15*
%TO.N,/WR*%
X104140000Y-107823000D02*
X104140000Y-104140000D01*
%TO.N,/~{DRVEN}*%
X109220000Y-109816346D02*
X109220000Y-104140000D01*
X104140000Y-110490000D02*
X108546346Y-110490000D01*
X102870000Y-109220000D02*
X104140000Y-110490000D01*
X108546346Y-110490000D02*
X109220000Y-109816346D01*
%TO.N,/PH2*%
X119380000Y-109816346D02*
X119380000Y-104140000D01*
X118706346Y-110490000D02*
X119380000Y-109816346D01*
X113030000Y-109220000D02*
X114300000Y-110490000D01*
X114300000Y-110490000D02*
X118706346Y-110490000D01*
%TO.N,/PH3*%
X116840000Y-107950000D02*
X116840000Y-104140000D01*
X115570000Y-109220000D02*
X116840000Y-107950000D01*
%TO.N,/RD*%
X106680000Y-106207000D02*
X106680000Y-104140000D01*
%TO.N,/WRPROT*%
X101600000Y-106807000D02*
X101600000Y-104140000D01*
%TO.N,/~{WREQ}*%
X114300000Y-107470000D02*
X114300000Y-104140000D01*
%TD*%
%TA.AperFunction,Conductor*%
%TO.N,GND*%
G36*
X94784075Y-111567007D02*
G01*
X94750000Y-111694174D01*
X94750000Y-111825826D01*
X94784075Y-111952993D01*
X94816988Y-112010000D01*
X93143012Y-112010000D01*
X93175925Y-111952993D01*
X93210000Y-111825826D01*
X93210000Y-111694174D01*
X93175925Y-111567007D01*
X93143012Y-111510000D01*
X94816988Y-111510000D01*
X94784075Y-111567007D01*
G37*
%TD.AperFunction*%
%TA.AperFunction,Conductor*%
G36*
X97324075Y-111567007D02*
G01*
X97290000Y-111694174D01*
X97290000Y-111825826D01*
X97324075Y-111952993D01*
X97356988Y-112010000D01*
X95683012Y-112010000D01*
X95715925Y-111952993D01*
X95750000Y-111825826D01*
X95750000Y-111694174D01*
X95715925Y-111567007D01*
X95683012Y-111510000D01*
X97356988Y-111510000D01*
X97324075Y-111567007D01*
G37*
%TD.AperFunction*%
%TA.AperFunction,Conductor*%
G36*
X99864075Y-111567007D02*
G01*
X99830000Y-111694174D01*
X99830000Y-111825826D01*
X99864075Y-111952993D01*
X99896988Y-112010000D01*
X98223012Y-112010000D01*
X98255925Y-111952993D01*
X98290000Y-111825826D01*
X98290000Y-111694174D01*
X98255925Y-111567007D01*
X98223012Y-111510000D01*
X99896988Y-111510000D01*
X99864075Y-111567007D01*
G37*
%TD.AperFunction*%
%TA.AperFunction,Conductor*%
G36*
X102404075Y-111567007D02*
G01*
X102370000Y-111694174D01*
X102370000Y-111825826D01*
X102404075Y-111952993D01*
X102436988Y-112010000D01*
X100763012Y-112010000D01*
X100795925Y-111952993D01*
X100830000Y-111825826D01*
X100830000Y-111694174D01*
X100795925Y-111567007D01*
X100763012Y-111510000D01*
X102436988Y-111510000D01*
X102404075Y-111567007D01*
G37*
%TD.AperFunction*%
%TA.AperFunction,Conductor*%
G36*
X104944075Y-111567007D02*
G01*
X104910000Y-111694174D01*
X104910000Y-111825826D01*
X104944075Y-111952993D01*
X104976988Y-112010000D01*
X103303012Y-112010000D01*
X103335925Y-111952993D01*
X103370000Y-111825826D01*
X103370000Y-111694174D01*
X103335925Y-111567007D01*
X103303012Y-111510000D01*
X104976988Y-111510000D01*
X104944075Y-111567007D01*
G37*
%TD.AperFunction*%
%TA.AperFunction,Conductor*%
G36*
X107484075Y-111567007D02*
G01*
X107450000Y-111694174D01*
X107450000Y-111825826D01*
X107484075Y-111952993D01*
X107516988Y-112010000D01*
X105843012Y-112010000D01*
X105875925Y-111952993D01*
X105910000Y-111825826D01*
X105910000Y-111694174D01*
X105875925Y-111567007D01*
X105843012Y-111510000D01*
X107516988Y-111510000D01*
X107484075Y-111567007D01*
G37*
%TD.AperFunction*%
%TA.AperFunction,Conductor*%
G36*
X110024075Y-111567007D02*
G01*
X109990000Y-111694174D01*
X109990000Y-111825826D01*
X110024075Y-111952993D01*
X110056988Y-112010000D01*
X108383012Y-112010000D01*
X108415925Y-111952993D01*
X108450000Y-111825826D01*
X108450000Y-111694174D01*
X108415925Y-111567007D01*
X108383012Y-111510000D01*
X110056988Y-111510000D01*
X110024075Y-111567007D01*
G37*
%TD.AperFunction*%
%TA.AperFunction,Conductor*%
G36*
X112564075Y-111567007D02*
G01*
X112530000Y-111694174D01*
X112530000Y-111825826D01*
X112564075Y-111952993D01*
X112596988Y-112010000D01*
X110923012Y-112010000D01*
X110955925Y-111952993D01*
X110990000Y-111825826D01*
X110990000Y-111694174D01*
X110955925Y-111567007D01*
X110923012Y-111510000D01*
X112596988Y-111510000D01*
X112564075Y-111567007D01*
G37*
%TD.AperFunction*%
%TA.AperFunction,Conductor*%
G36*
X115104075Y-111567007D02*
G01*
X115070000Y-111694174D01*
X115070000Y-111825826D01*
X115104075Y-111952993D01*
X115136988Y-112010000D01*
X113463012Y-112010000D01*
X113495925Y-111952993D01*
X113530000Y-111825826D01*
X113530000Y-111694174D01*
X113495925Y-111567007D01*
X113463012Y-111510000D01*
X115136988Y-111510000D01*
X115104075Y-111567007D01*
G37*
%TD.AperFunction*%
%TA.AperFunction,Conductor*%
G36*
X117644075Y-111567007D02*
G01*
X117610000Y-111694174D01*
X117610000Y-111825826D01*
X117644075Y-111952993D01*
X117676988Y-112010000D01*
X116003012Y-112010000D01*
X116035925Y-111952993D01*
X116070000Y-111825826D01*
X116070000Y-111694174D01*
X116035925Y-111567007D01*
X116003012Y-111510000D01*
X117676988Y-111510000D01*
X117644075Y-111567007D01*
G37*
%TD.AperFunction*%
%TA.AperFunction,Conductor*%
G36*
X120184075Y-111567007D02*
G01*
X120150000Y-111694174D01*
X120150000Y-111825826D01*
X120184075Y-111952993D01*
X120216988Y-112010000D01*
X118543012Y-112010000D01*
X118575925Y-111952993D01*
X118610000Y-111825826D01*
X118610000Y-111694174D01*
X118575925Y-111567007D01*
X118543012Y-111510000D01*
X120216988Y-111510000D01*
X120184075Y-111567007D01*
G37*
%TD.AperFunction*%
%TA.AperFunction,Conductor*%
G36*
X122724075Y-111567007D02*
G01*
X122690000Y-111694174D01*
X122690000Y-111825826D01*
X122724075Y-111952993D01*
X122756988Y-112010000D01*
X121083012Y-112010000D01*
X121115925Y-111952993D01*
X121150000Y-111825826D01*
X121150000Y-111694174D01*
X121115925Y-111567007D01*
X121083012Y-111510000D01*
X122756988Y-111510000D01*
X122724075Y-111567007D01*
G37*
%TD.AperFunction*%
%TA.AperFunction,Conductor*%
G36*
X125264075Y-111567007D02*
G01*
X125230000Y-111694174D01*
X125230000Y-111825826D01*
X125264075Y-111952993D01*
X125296988Y-112010000D01*
X123623012Y-112010000D01*
X123655925Y-111952993D01*
X123690000Y-111825826D01*
X123690000Y-111694174D01*
X123655925Y-111567007D01*
X123623012Y-111510000D01*
X125296988Y-111510000D01*
X125264075Y-111567007D01*
G37*
%TD.AperFunction*%
%TA.AperFunction,Conductor*%
G36*
X127804075Y-111567007D02*
G01*
X127770000Y-111694174D01*
X127770000Y-111825826D01*
X127804075Y-111952993D01*
X127836988Y-112010000D01*
X126163012Y-112010000D01*
X126195925Y-111952993D01*
X126230000Y-111825826D01*
X126230000Y-111694174D01*
X126195925Y-111567007D01*
X126163012Y-111510000D01*
X127836988Y-111510000D01*
X127804075Y-111567007D01*
G37*
%TD.AperFunction*%
%TA.AperFunction,Conductor*%
G36*
X130344075Y-111567007D02*
G01*
X130310000Y-111694174D01*
X130310000Y-111825826D01*
X130344075Y-111952993D01*
X130376988Y-112010000D01*
X128703012Y-112010000D01*
X128735925Y-111952993D01*
X128770000Y-111825826D01*
X128770000Y-111694174D01*
X128735925Y-111567007D01*
X128703012Y-111510000D01*
X130376988Y-111510000D01*
X130344075Y-111567007D01*
G37*
%TD.AperFunction*%
%TA.AperFunction,Conductor*%
G36*
X132884075Y-111567007D02*
G01*
X132850000Y-111694174D01*
X132850000Y-111825826D01*
X132884075Y-111952993D01*
X132916988Y-112010000D01*
X131243012Y-112010000D01*
X131275925Y-111952993D01*
X131310000Y-111825826D01*
X131310000Y-111694174D01*
X131275925Y-111567007D01*
X131243012Y-111510000D01*
X132916988Y-111510000D01*
X132884075Y-111567007D01*
G37*
%TD.AperFunction*%
%TA.AperFunction,Conductor*%
G36*
X116374075Y-101792993D02*
G01*
X116439901Y-101907007D01*
X116532993Y-102000099D01*
X116647007Y-102065925D01*
X116710590Y-102082962D01*
X116078625Y-102714925D01*
X116154594Y-102768119D01*
X116198219Y-102822696D01*
X116205413Y-102892194D01*
X116173890Y-102954549D01*
X116154595Y-102971269D01*
X115968594Y-103101508D01*
X115801505Y-103268597D01*
X115671575Y-103454158D01*
X115616998Y-103497783D01*
X115547500Y-103504977D01*
X115485145Y-103473454D01*
X115468425Y-103454158D01*
X115338494Y-103268597D01*
X115171402Y-103101506D01*
X115171396Y-103101501D01*
X114985842Y-102971575D01*
X114942217Y-102916998D01*
X114935023Y-102847500D01*
X114966546Y-102785145D01*
X114985842Y-102768425D01*
X115062248Y-102714925D01*
X115171401Y-102638495D01*
X115338495Y-102471401D01*
X115468732Y-102285403D01*
X115523307Y-102241780D01*
X115592805Y-102234586D01*
X115655160Y-102266109D01*
X115671880Y-102285405D01*
X115725073Y-102361373D01*
X116357037Y-101729409D01*
X116374075Y-101792993D01*
G37*
%TD.AperFunction*%
%TA.AperFunction,Conductor*%
G36*
X118914075Y-101792993D02*
G01*
X118979901Y-101907007D01*
X119072993Y-102000099D01*
X119187007Y-102065925D01*
X119250590Y-102082962D01*
X118618625Y-102714925D01*
X118694594Y-102768119D01*
X118738219Y-102822696D01*
X118745413Y-102892194D01*
X118713890Y-102954549D01*
X118694595Y-102971269D01*
X118508594Y-103101508D01*
X118341505Y-103268597D01*
X118211575Y-103454158D01*
X118156998Y-103497783D01*
X118087500Y-103504977D01*
X118025145Y-103473454D01*
X118008425Y-103454158D01*
X117878494Y-103268597D01*
X117711402Y-103101506D01*
X117711401Y-103101505D01*
X117525405Y-102971269D01*
X117481781Y-102916692D01*
X117474588Y-102847193D01*
X117506110Y-102784839D01*
X117525405Y-102768119D01*
X117601373Y-102714925D01*
X116969409Y-102082962D01*
X117032993Y-102065925D01*
X117147007Y-102000099D01*
X117240099Y-101907007D01*
X117305925Y-101792993D01*
X117322962Y-101729410D01*
X117954925Y-102361373D01*
X118008425Y-102284968D01*
X118063002Y-102241344D01*
X118132501Y-102234151D01*
X118194855Y-102265673D01*
X118211576Y-102284969D01*
X118265073Y-102361372D01*
X118897037Y-101729409D01*
X118914075Y-101792993D01*
G37*
%TD.AperFunction*%
%TA.AperFunction,Conductor*%
G36*
X121454075Y-101792993D02*
G01*
X121519901Y-101907007D01*
X121612993Y-102000099D01*
X121727007Y-102065925D01*
X121790590Y-102082962D01*
X121158625Y-102714925D01*
X121234594Y-102768119D01*
X121278219Y-102822696D01*
X121285413Y-102892194D01*
X121253890Y-102954549D01*
X121234595Y-102971269D01*
X121048594Y-103101508D01*
X120881505Y-103268597D01*
X120751575Y-103454158D01*
X120696998Y-103497783D01*
X120627500Y-103504977D01*
X120565145Y-103473454D01*
X120548425Y-103454158D01*
X120418494Y-103268597D01*
X120251402Y-103101506D01*
X120251401Y-103101505D01*
X120065405Y-102971269D01*
X120021781Y-102916692D01*
X120014588Y-102847193D01*
X120046110Y-102784839D01*
X120065405Y-102768119D01*
X120141373Y-102714925D01*
X119509409Y-102082962D01*
X119572993Y-102065925D01*
X119687007Y-102000099D01*
X119780099Y-101907007D01*
X119845925Y-101792993D01*
X119862962Y-101729410D01*
X120494925Y-102361373D01*
X120548425Y-102284968D01*
X120603002Y-102241344D01*
X120672501Y-102234151D01*
X120734855Y-102265673D01*
X120751576Y-102284969D01*
X120805073Y-102361372D01*
X121437037Y-101729409D01*
X121454075Y-101792993D01*
G37*
%TD.AperFunction*%
%TA.AperFunction,Conductor*%
G36*
X123039156Y-102365604D02*
G01*
X123091701Y-102376163D01*
X123141885Y-102424777D01*
X123151717Y-102446921D01*
X123175642Y-102519121D01*
X123175643Y-102519124D01*
X123267684Y-102668345D01*
X123391654Y-102792315D01*
X123540875Y-102884356D01*
X123540882Y-102884359D01*
X123549712Y-102887285D01*
X123607157Y-102927057D01*
X123633981Y-102991572D01*
X123621667Y-103060348D01*
X123592318Y-103097567D01*
X123592427Y-103097676D01*
X123591511Y-103098591D01*
X123590419Y-103099977D01*
X123588597Y-103101505D01*
X123421505Y-103268597D01*
X123291575Y-103454158D01*
X123236998Y-103497783D01*
X123167500Y-103504977D01*
X123105145Y-103473454D01*
X123088425Y-103454158D01*
X122958494Y-103268597D01*
X122791402Y-103101506D01*
X122791401Y-103101505D01*
X122605405Y-102971269D01*
X122561781Y-102916692D01*
X122554588Y-102847193D01*
X122586110Y-102784839D01*
X122605405Y-102768119D01*
X122681373Y-102714925D01*
X122049409Y-102082962D01*
X122112993Y-102065925D01*
X122227007Y-102000099D01*
X122320099Y-101907007D01*
X122385925Y-101792993D01*
X122402962Y-101729410D01*
X123039156Y-102365604D01*
G37*
%TD.AperFunction*%
%TA.AperFunction,Conductor*%
G36*
X134642922Y-98291280D02*
G01*
X134733266Y-98301459D01*
X134760331Y-98307636D01*
X134839540Y-98335352D01*
X134864553Y-98347398D01*
X134935606Y-98392043D01*
X134957313Y-98409355D01*
X135016644Y-98468686D01*
X135033957Y-98490395D01*
X135078600Y-98561444D01*
X135090648Y-98586462D01*
X135118362Y-98665666D01*
X135124540Y-98692735D01*
X135134720Y-98783076D01*
X135135500Y-98796961D01*
X135135500Y-112912038D01*
X135134720Y-112925923D01*
X135124540Y-113016264D01*
X135118362Y-113043333D01*
X135090648Y-113122537D01*
X135078600Y-113147555D01*
X135033957Y-113218604D01*
X135016644Y-113240313D01*
X134957313Y-113299644D01*
X134935604Y-113316957D01*
X134864555Y-113361600D01*
X134839537Y-113373648D01*
X134760333Y-113401362D01*
X134733264Y-113407540D01*
X134653075Y-113416576D01*
X134642921Y-113417720D01*
X134629038Y-113418500D01*
X77206962Y-113418500D01*
X77193078Y-113417720D01*
X77180553Y-113416308D01*
X77102735Y-113407540D01*
X77075666Y-113401362D01*
X76996462Y-113373648D01*
X76971444Y-113361600D01*
X76900395Y-113316957D01*
X76878686Y-113299644D01*
X76819355Y-113240313D01*
X76802042Y-113218604D01*
X76757399Y-113147555D01*
X76745351Y-113122537D01*
X76740964Y-113110000D01*
X76717636Y-113043331D01*
X76711459Y-113016263D01*
X76705929Y-112967187D01*
X76701280Y-112925922D01*
X76700500Y-112912038D01*
X76700500Y-111253391D01*
X76720185Y-111186352D01*
X76772989Y-111140597D01*
X76842147Y-111130653D01*
X76905703Y-111159678D01*
X76926073Y-111182266D01*
X76975876Y-111253391D01*
X77051281Y-111361082D01*
X77051505Y-111361401D01*
X77218599Y-111528495D01*
X77315384Y-111596265D01*
X77412165Y-111664032D01*
X77412167Y-111664033D01*
X77412170Y-111664035D01*
X77626337Y-111763903D01*
X77854592Y-111825063D01*
X78031034Y-111840500D01*
X78089999Y-111845659D01*
X78090000Y-111845659D01*
X78090001Y-111845659D01*
X78148966Y-111840500D01*
X78325408Y-111825063D01*
X78553663Y-111763903D01*
X78767830Y-111664035D01*
X78961401Y-111528495D01*
X79128495Y-111361401D01*
X79258730Y-111175405D01*
X79313307Y-111131781D01*
X79382805Y-111124587D01*
X79445160Y-111156110D01*
X79461879Y-111175405D01*
X79591890Y-111361078D01*
X79758917Y-111528105D01*
X79952421Y-111663600D01*
X80166507Y-111763429D01*
X80166516Y-111763433D01*
X80380000Y-111820634D01*
X80380000Y-110923012D01*
X80437007Y-110955925D01*
X80564174Y-110990000D01*
X80695826Y-110990000D01*
X80822993Y-110955925D01*
X80880000Y-110923012D01*
X80880000Y-111820633D01*
X81093483Y-111763433D01*
X81093492Y-111763429D01*
X81307578Y-111663600D01*
X81501082Y-111528105D01*
X81668105Y-111361082D01*
X81798425Y-111174968D01*
X81853002Y-111131344D01*
X81922501Y-111124151D01*
X81984855Y-111155673D01*
X82001575Y-111174968D01*
X82131894Y-111361082D01*
X82298917Y-111528105D01*
X82492421Y-111663600D01*
X82706507Y-111763429D01*
X82706516Y-111763433D01*
X82920000Y-111820634D01*
X82920000Y-110923012D01*
X82977007Y-110955925D01*
X83104174Y-110990000D01*
X83235826Y-110990000D01*
X83362993Y-110955925D01*
X83420000Y-110923012D01*
X83420000Y-111820633D01*
X83633483Y-111763433D01*
X83633492Y-111763429D01*
X83847578Y-111663600D01*
X84041078Y-111528108D01*
X84163133Y-111406053D01*
X84224456Y-111372568D01*
X84294148Y-111377552D01*
X84350082Y-111419423D01*
X84366997Y-111450401D01*
X84416202Y-111582328D01*
X84416206Y-111582335D01*
X84502452Y-111697544D01*
X84502455Y-111697547D01*
X84617664Y-111783793D01*
X84617671Y-111783797D01*
X84752517Y-111834091D01*
X84752516Y-111834091D01*
X84759444Y-111834835D01*
X84812127Y-111840500D01*
X86607872Y-111840499D01*
X86667483Y-111834091D01*
X86802331Y-111783796D01*
X86917546Y-111697546D01*
X87003796Y-111582331D01*
X87054091Y-111447483D01*
X87060500Y-111387873D01*
X87060499Y-109592128D01*
X87054091Y-109532517D01*
X87053002Y-109529598D01*
X87003797Y-109397671D01*
X87003793Y-109397664D01*
X86917547Y-109282455D01*
X86917544Y-109282452D01*
X86834118Y-109219999D01*
X91354341Y-109219999D01*
X91354341Y-109220000D01*
X91374936Y-109455403D01*
X91374938Y-109455413D01*
X91436094Y-109683655D01*
X91436096Y-109683659D01*
X91436097Y-109683663D01*
X91519358Y-109862217D01*
X91535965Y-109897830D01*
X91535967Y-109897834D01*
X91600503Y-109990000D01*
X91671501Y-110091396D01*
X91671506Y-110091402D01*
X91793818Y-110213714D01*
X91827303Y-110275037D01*
X91822319Y-110344729D01*
X91780447Y-110400662D01*
X91749471Y-110417577D01*
X91617912Y-110466646D01*
X91617906Y-110466649D01*
X91502812Y-110552809D01*
X91502809Y-110552812D01*
X91416649Y-110667906D01*
X91416645Y-110667913D01*
X91366403Y-110802620D01*
X91366401Y-110802627D01*
X91360000Y-110862155D01*
X91360000Y-111510000D01*
X92276988Y-111510000D01*
X92244075Y-111567007D01*
X92210000Y-111694174D01*
X92210000Y-111825826D01*
X92244075Y-111952993D01*
X92276988Y-112010000D01*
X91360000Y-112010000D01*
X91360000Y-112657844D01*
X91366401Y-112717372D01*
X91366403Y-112717379D01*
X91416645Y-112852086D01*
X91416649Y-112852093D01*
X91502809Y-112967187D01*
X91502812Y-112967190D01*
X91617906Y-113053350D01*
X91617913Y-113053354D01*
X91752620Y-113103596D01*
X91752627Y-113103598D01*
X91812155Y-113109999D01*
X91812172Y-113110000D01*
X92460000Y-113110000D01*
X92460000Y-112193012D01*
X92517007Y-112225925D01*
X92644174Y-112260000D01*
X92775826Y-112260000D01*
X92902993Y-112225925D01*
X92960000Y-112193012D01*
X92960000Y-113110000D01*
X93607828Y-113110000D01*
X93607844Y-113109999D01*
X93667372Y-113103598D01*
X93667379Y-113103596D01*
X93802086Y-113053354D01*
X93802093Y-113053350D01*
X93917187Y-112967190D01*
X93917190Y-112967187D01*
X94003350Y-112852093D01*
X94003354Y-112852086D01*
X94052614Y-112720013D01*
X94094485Y-112664079D01*
X94159949Y-112639662D01*
X94228222Y-112654513D01*
X94256477Y-112675665D01*
X94378917Y-112798105D01*
X94572421Y-112933600D01*
X94786507Y-113033429D01*
X94786516Y-113033433D01*
X95000000Y-113090634D01*
X95000000Y-112193012D01*
X95057007Y-112225925D01*
X95184174Y-112260000D01*
X95315826Y-112260000D01*
X95442993Y-112225925D01*
X95500000Y-112193012D01*
X95500000Y-113090633D01*
X95713483Y-113033433D01*
X95713492Y-113033429D01*
X95927578Y-112933600D01*
X96121082Y-112798105D01*
X96288105Y-112631082D01*
X96418425Y-112444968D01*
X96473002Y-112401344D01*
X96542501Y-112394151D01*
X96604855Y-112425673D01*
X96621575Y-112444968D01*
X96751894Y-112631082D01*
X96918917Y-112798105D01*
X97112421Y-112933600D01*
X97326507Y-113033429D01*
X97326516Y-113033433D01*
X97540000Y-113090634D01*
X97540000Y-112193012D01*
X97597007Y-112225925D01*
X97724174Y-112260000D01*
X97855826Y-112260000D01*
X97982993Y-112225925D01*
X98040000Y-112193012D01*
X98040000Y-113090633D01*
X98253483Y-113033433D01*
X98253492Y-113033429D01*
X98467578Y-112933600D01*
X98661082Y-112798105D01*
X98828105Y-112631082D01*
X98958425Y-112444968D01*
X99013002Y-112401344D01*
X99082501Y-112394151D01*
X99144855Y-112425673D01*
X99161575Y-112444968D01*
X99291894Y-112631082D01*
X99458917Y-112798105D01*
X99652421Y-112933600D01*
X99866507Y-113033429D01*
X99866516Y-113033433D01*
X100080000Y-113090634D01*
X100080000Y-112193012D01*
X100137007Y-112225925D01*
X100264174Y-112260000D01*
X100395826Y-112260000D01*
X100522993Y-112225925D01*
X100580000Y-112193012D01*
X100580000Y-113090633D01*
X100793483Y-113033433D01*
X100793492Y-113033429D01*
X101007578Y-112933600D01*
X101201082Y-112798105D01*
X101368105Y-112631082D01*
X101498425Y-112444968D01*
X101553002Y-112401344D01*
X101622501Y-112394151D01*
X101684855Y-112425673D01*
X101701575Y-112444968D01*
X101831894Y-112631082D01*
X101998917Y-112798105D01*
X102192421Y-112933600D01*
X102406507Y-113033429D01*
X102406516Y-113033433D01*
X102620000Y-113090634D01*
X102620000Y-112193012D01*
X102677007Y-112225925D01*
X102804174Y-112260000D01*
X102935826Y-112260000D01*
X103062993Y-112225925D01*
X103120000Y-112193012D01*
X103120000Y-113090633D01*
X103333483Y-113033433D01*
X103333492Y-113033429D01*
X103547578Y-112933600D01*
X103741082Y-112798105D01*
X103908105Y-112631082D01*
X104038425Y-112444968D01*
X104093002Y-112401344D01*
X104162501Y-112394151D01*
X104224855Y-112425673D01*
X104241575Y-112444968D01*
X104371894Y-112631082D01*
X104538917Y-112798105D01*
X104732421Y-112933600D01*
X104946507Y-113033429D01*
X104946516Y-113033433D01*
X105160000Y-113090634D01*
X105160000Y-112193012D01*
X105217007Y-112225925D01*
X105344174Y-112260000D01*
X105475826Y-112260000D01*
X105602993Y-112225925D01*
X105660000Y-112193012D01*
X105660000Y-113090633D01*
X105873483Y-113033433D01*
X105873492Y-113033429D01*
X106087578Y-112933600D01*
X106281082Y-112798105D01*
X106448105Y-112631082D01*
X106578425Y-112444968D01*
X106633002Y-112401344D01*
X106702501Y-112394151D01*
X106764855Y-112425673D01*
X106781575Y-112444968D01*
X106911894Y-112631082D01*
X107078917Y-112798105D01*
X107272421Y-112933600D01*
X107486507Y-113033429D01*
X107486516Y-113033433D01*
X107700000Y-113090634D01*
X107700000Y-112193012D01*
X107757007Y-112225925D01*
X107884174Y-112260000D01*
X108015826Y-112260000D01*
X108142993Y-112225925D01*
X108200000Y-112193012D01*
X108200000Y-113090634D01*
X108413483Y-113033433D01*
X108413492Y-113033429D01*
X108627578Y-112933600D01*
X108821082Y-112798105D01*
X108988105Y-112631082D01*
X109118425Y-112444968D01*
X109173002Y-112401344D01*
X109242501Y-112394151D01*
X109304855Y-112425673D01*
X109321575Y-112444968D01*
X109451894Y-112631082D01*
X109618917Y-112798105D01*
X109812421Y-112933600D01*
X110026507Y-113033429D01*
X110026516Y-113033433D01*
X110240000Y-113090634D01*
X110240000Y-112193012D01*
X110297007Y-112225925D01*
X110424174Y-112260000D01*
X110555826Y-112260000D01*
X110682993Y-112225925D01*
X110740000Y-112193012D01*
X110740000Y-113090634D01*
X110953483Y-113033433D01*
X110953492Y-113033429D01*
X111167578Y-112933600D01*
X111361082Y-112798105D01*
X111528105Y-112631082D01*
X111658425Y-112444968D01*
X111713002Y-112401344D01*
X111782501Y-112394151D01*
X111844855Y-112425673D01*
X111861575Y-112444968D01*
X111991894Y-112631082D01*
X112158917Y-112798105D01*
X112352421Y-112933600D01*
X112566507Y-113033429D01*
X112566516Y-113033433D01*
X112780000Y-113090634D01*
X112780000Y-112193012D01*
X112837007Y-112225925D01*
X112964174Y-112260000D01*
X113095826Y-112260000D01*
X113222993Y-112225925D01*
X113280000Y-112193012D01*
X113280000Y-113090634D01*
X113493483Y-113033433D01*
X113493492Y-113033429D01*
X113707578Y-112933600D01*
X113901082Y-112798105D01*
X114068105Y-112631082D01*
X114198425Y-112444968D01*
X114253002Y-112401344D01*
X114322501Y-112394151D01*
X114384855Y-112425673D01*
X114401575Y-112444968D01*
X114531894Y-112631082D01*
X114698917Y-112798105D01*
X114892421Y-112933600D01*
X115106507Y-113033429D01*
X115106516Y-113033433D01*
X115320000Y-113090634D01*
X115320000Y-112193012D01*
X115377007Y-112225925D01*
X115504174Y-112260000D01*
X115635826Y-112260000D01*
X115762993Y-112225925D01*
X115820000Y-112193012D01*
X115820000Y-113090634D01*
X116033483Y-113033433D01*
X116033492Y-113033429D01*
X116247578Y-112933600D01*
X116441082Y-112798105D01*
X116608105Y-112631082D01*
X116738425Y-112444968D01*
X116793002Y-112401344D01*
X116862501Y-112394151D01*
X116924855Y-112425673D01*
X116941575Y-112444968D01*
X117071894Y-112631082D01*
X117238917Y-112798105D01*
X117432421Y-112933600D01*
X117646507Y-113033429D01*
X117646516Y-113033433D01*
X117860000Y-113090634D01*
X117860000Y-112193012D01*
X117917007Y-112225925D01*
X118044174Y-112260000D01*
X118175826Y-112260000D01*
X118302993Y-112225925D01*
X118360000Y-112193012D01*
X118360000Y-113090634D01*
X118573483Y-113033433D01*
X118573492Y-113033429D01*
X118787578Y-112933600D01*
X118981082Y-112798105D01*
X119148105Y-112631082D01*
X119278425Y-112444968D01*
X119333002Y-112401344D01*
X119402501Y-112394151D01*
X119464855Y-112425673D01*
X119481575Y-112444968D01*
X119611894Y-112631082D01*
X119778917Y-112798105D01*
X119972421Y-112933600D01*
X120186507Y-113033429D01*
X120186516Y-113033433D01*
X120400000Y-113090634D01*
X120400000Y-112193012D01*
X120457007Y-112225925D01*
X120584174Y-112260000D01*
X120715826Y-112260000D01*
X120842993Y-112225925D01*
X120900000Y-112193012D01*
X120900000Y-113090633D01*
X121113483Y-113033433D01*
X121113492Y-113033429D01*
X121327578Y-112933600D01*
X121521082Y-112798105D01*
X121688105Y-112631082D01*
X121818425Y-112444968D01*
X121873002Y-112401344D01*
X121942501Y-112394151D01*
X122004855Y-112425673D01*
X122021575Y-112444968D01*
X122151894Y-112631082D01*
X122318917Y-112798105D01*
X122512421Y-112933600D01*
X122726507Y-113033429D01*
X122726516Y-113033433D01*
X122940000Y-113090634D01*
X122940000Y-112193012D01*
X122997007Y-112225925D01*
X123124174Y-112260000D01*
X123255826Y-112260000D01*
X123382993Y-112225925D01*
X123440000Y-112193012D01*
X123440000Y-113090633D01*
X123653483Y-113033433D01*
X123653492Y-113033429D01*
X123867578Y-112933600D01*
X124061082Y-112798105D01*
X124228105Y-112631082D01*
X124358425Y-112444968D01*
X124413002Y-112401344D01*
X124482501Y-112394151D01*
X124544855Y-112425673D01*
X124561575Y-112444968D01*
X124691894Y-112631082D01*
X124858917Y-112798105D01*
X125052421Y-112933600D01*
X125266507Y-113033429D01*
X125266516Y-113033433D01*
X125480000Y-113090634D01*
X125480000Y-112193012D01*
X125537007Y-112225925D01*
X125664174Y-112260000D01*
X125795826Y-112260000D01*
X125922993Y-112225925D01*
X125980000Y-112193012D01*
X125980000Y-113090633D01*
X126193483Y-113033433D01*
X126193492Y-113033429D01*
X126407578Y-112933600D01*
X126601082Y-112798105D01*
X126768105Y-112631082D01*
X126898425Y-112444968D01*
X126953002Y-112401344D01*
X127022501Y-112394151D01*
X127084855Y-112425673D01*
X127101575Y-112444968D01*
X127231894Y-112631082D01*
X127398917Y-112798105D01*
X127592421Y-112933600D01*
X127806507Y-113033429D01*
X127806516Y-113033433D01*
X128020000Y-113090634D01*
X128020000Y-112193012D01*
X128077007Y-112225925D01*
X128204174Y-112260000D01*
X128335826Y-112260000D01*
X128462993Y-112225925D01*
X128520000Y-112193012D01*
X128520000Y-113090633D01*
X128733483Y-113033433D01*
X128733492Y-113033429D01*
X128947578Y-112933600D01*
X129141082Y-112798105D01*
X129308105Y-112631082D01*
X129438425Y-112444968D01*
X129493002Y-112401344D01*
X129562501Y-112394151D01*
X129624855Y-112425673D01*
X129641575Y-112444968D01*
X129771894Y-112631082D01*
X129938917Y-112798105D01*
X130132421Y-112933600D01*
X130346507Y-113033429D01*
X130346516Y-113033433D01*
X130560000Y-113090634D01*
X130560000Y-112193012D01*
X130617007Y-112225925D01*
X130744174Y-112260000D01*
X130875826Y-112260000D01*
X131002993Y-112225925D01*
X131060000Y-112193012D01*
X131060000Y-113090633D01*
X131273483Y-113033433D01*
X131273492Y-113033429D01*
X131487578Y-112933600D01*
X131681082Y-112798105D01*
X131848105Y-112631082D01*
X131978425Y-112444968D01*
X132033002Y-112401344D01*
X132102501Y-112394151D01*
X132164855Y-112425673D01*
X132181575Y-112444968D01*
X132311894Y-112631082D01*
X132478917Y-112798105D01*
X132672421Y-112933600D01*
X132886507Y-113033429D01*
X132886516Y-113033433D01*
X133100000Y-113090634D01*
X133100000Y-112193012D01*
X133157007Y-112225925D01*
X133284174Y-112260000D01*
X133415826Y-112260000D01*
X133542993Y-112225925D01*
X133600000Y-112193012D01*
X133600000Y-113090633D01*
X133813483Y-113033433D01*
X133813492Y-113033429D01*
X134027578Y-112933600D01*
X134221082Y-112798105D01*
X134388105Y-112631082D01*
X134523600Y-112437578D01*
X134623429Y-112223492D01*
X134623432Y-112223486D01*
X134680636Y-112010000D01*
X133783012Y-112010000D01*
X133815925Y-111952993D01*
X133850000Y-111825826D01*
X133850000Y-111694174D01*
X133815925Y-111567007D01*
X133783012Y-111510000D01*
X134680636Y-111510000D01*
X134680635Y-111509999D01*
X134623432Y-111296513D01*
X134623429Y-111296507D01*
X134523600Y-111082422D01*
X134523599Y-111082420D01*
X134388113Y-110888926D01*
X134388108Y-110888920D01*
X134221078Y-110721890D01*
X134035405Y-110591879D01*
X133991780Y-110537302D01*
X133984588Y-110467804D01*
X134016110Y-110405449D01*
X134035406Y-110388730D01*
X134098246Y-110344729D01*
X134221401Y-110258495D01*
X134388495Y-110091401D01*
X134524035Y-109897830D01*
X134623903Y-109683663D01*
X134685063Y-109455408D01*
X134705659Y-109220000D01*
X134685063Y-108984592D01*
X134623903Y-108756337D01*
X134524035Y-108542171D01*
X134518425Y-108534158D01*
X134388494Y-108348597D01*
X134221402Y-108181506D01*
X134221395Y-108181501D01*
X134027834Y-108045967D01*
X134027830Y-108045965D01*
X133991573Y-108029058D01*
X133813663Y-107946097D01*
X133813659Y-107946096D01*
X133813655Y-107946094D01*
X133585413Y-107884938D01*
X133585403Y-107884936D01*
X133350001Y-107864341D01*
X133349999Y-107864341D01*
X133114596Y-107884936D01*
X133114586Y-107884938D01*
X132886344Y-107946094D01*
X132886335Y-107946098D01*
X132672171Y-108045964D01*
X132672169Y-108045965D01*
X132478597Y-108181505D01*
X132311505Y-108348597D01*
X132181575Y-108534158D01*
X132126998Y-108577783D01*
X132057500Y-108584977D01*
X131995145Y-108553454D01*
X131978425Y-108534158D01*
X131848494Y-108348597D01*
X131681402Y-108181506D01*
X131681395Y-108181501D01*
X131487834Y-108045967D01*
X131487830Y-108045965D01*
X131451573Y-108029058D01*
X131273663Y-107946097D01*
X131273659Y-107946096D01*
X131273655Y-107946094D01*
X131045413Y-107884938D01*
X131045403Y-107884936D01*
X130810001Y-107864341D01*
X130809999Y-107864341D01*
X130574596Y-107884936D01*
X130574586Y-107884938D01*
X130346344Y-107946094D01*
X130346335Y-107946098D01*
X130132171Y-108045964D01*
X130132169Y-108045965D01*
X129938597Y-108181505D01*
X129771505Y-108348597D01*
X129641575Y-108534158D01*
X129586998Y-108577783D01*
X129517500Y-108584977D01*
X129455145Y-108553454D01*
X129438425Y-108534158D01*
X129308494Y-108348597D01*
X129141402Y-108181506D01*
X129141395Y-108181501D01*
X128947834Y-108045967D01*
X128947830Y-108045965D01*
X128911573Y-108029058D01*
X128733663Y-107946097D01*
X128733659Y-107946096D01*
X128733655Y-107946094D01*
X128505413Y-107884938D01*
X128505403Y-107884936D01*
X128270001Y-107864341D01*
X128269999Y-107864341D01*
X128034596Y-107884936D01*
X128034586Y-107884938D01*
X127806344Y-107946094D01*
X127806335Y-107946098D01*
X127592171Y-108045964D01*
X127592169Y-108045965D01*
X127398597Y-108181505D01*
X127231505Y-108348597D01*
X127101575Y-108534158D01*
X127046998Y-108577783D01*
X126977500Y-108584977D01*
X126915145Y-108553454D01*
X126898425Y-108534158D01*
X126768494Y-108348597D01*
X126601402Y-108181506D01*
X126601395Y-108181501D01*
X126407834Y-108045967D01*
X126407830Y-108045965D01*
X126371573Y-108029058D01*
X126193663Y-107946097D01*
X126193659Y-107946096D01*
X126193655Y-107946094D01*
X125965413Y-107884938D01*
X125965403Y-107884936D01*
X125730001Y-107864341D01*
X125729999Y-107864341D01*
X125494596Y-107884936D01*
X125494586Y-107884938D01*
X125266344Y-107946094D01*
X125266335Y-107946098D01*
X125052171Y-108045964D01*
X125052169Y-108045965D01*
X124858597Y-108181505D01*
X124691505Y-108348597D01*
X124561575Y-108534158D01*
X124506998Y-108577783D01*
X124437500Y-108584977D01*
X124375145Y-108553454D01*
X124358425Y-108534158D01*
X124228494Y-108348597D01*
X124061402Y-108181506D01*
X124061395Y-108181501D01*
X123867834Y-108045967D01*
X123867830Y-108045965D01*
X123831573Y-108029058D01*
X123653663Y-107946097D01*
X123653659Y-107946096D01*
X123653655Y-107946094D01*
X123425413Y-107884938D01*
X123425403Y-107884936D01*
X123190001Y-107864341D01*
X123189999Y-107864341D01*
X122954596Y-107884936D01*
X122954586Y-107884938D01*
X122726344Y-107946094D01*
X122726335Y-107946098D01*
X122512171Y-108045964D01*
X122512169Y-108045965D01*
X122318597Y-108181505D01*
X122151505Y-108348597D01*
X122021575Y-108534158D01*
X121966998Y-108577783D01*
X121897500Y-108584977D01*
X121835145Y-108553454D01*
X121818425Y-108534158D01*
X121688494Y-108348597D01*
X121521402Y-108181506D01*
X121521395Y-108181501D01*
X121327834Y-108045967D01*
X121327830Y-108045965D01*
X121291573Y-108029058D01*
X121113663Y-107946097D01*
X121113659Y-107946096D01*
X121113655Y-107946094D01*
X120885413Y-107884938D01*
X120885403Y-107884936D01*
X120650001Y-107864341D01*
X120649999Y-107864341D01*
X120414596Y-107884936D01*
X120414586Y-107884938D01*
X120186344Y-107946094D01*
X120186335Y-107946098D01*
X120156903Y-107959822D01*
X120087826Y-107970313D01*
X120024042Y-107941792D01*
X119985803Y-107883315D01*
X119980500Y-107847439D01*
X119980500Y-105998232D01*
X119993525Y-105942911D01*
X120053554Y-105822493D01*
X120541059Y-104844548D01*
X120588584Y-104793333D01*
X120656255Y-104775942D01*
X120722586Y-104797897D01*
X120753609Y-104828747D01*
X120881500Y-105011395D01*
X120881505Y-105011401D01*
X121048599Y-105178495D01*
X121145384Y-105246265D01*
X121242165Y-105314032D01*
X121242167Y-105314033D01*
X121242170Y-105314035D01*
X121456337Y-105413903D01*
X121684592Y-105475063D01*
X121872918Y-105491539D01*
X121919999Y-105495659D01*
X121920000Y-105495659D01*
X121920001Y-105495659D01*
X121959234Y-105492226D01*
X122155408Y-105475063D01*
X122383663Y-105413903D01*
X122597830Y-105314035D01*
X122791401Y-105178495D01*
X122958495Y-105011401D01*
X123088425Y-104825842D01*
X123143002Y-104782217D01*
X123212500Y-104775023D01*
X123274855Y-104806546D01*
X123291575Y-104825842D01*
X123421500Y-105011395D01*
X123421505Y-105011401D01*
X123588599Y-105178495D01*
X123685384Y-105246265D01*
X123782165Y-105314032D01*
X123782167Y-105314033D01*
X123782170Y-105314035D01*
X123996337Y-105413903D01*
X124224592Y-105475063D01*
X124412918Y-105491539D01*
X124459999Y-105495659D01*
X124460000Y-105495659D01*
X124460001Y-105495659D01*
X124499234Y-105492226D01*
X124695408Y-105475063D01*
X124923663Y-105413903D01*
X125137830Y-105314035D01*
X125331401Y-105178495D01*
X125498495Y-105011401D01*
X125634035Y-104817830D01*
X125733903Y-104603663D01*
X125795063Y-104375408D01*
X125815659Y-104140000D01*
X125795063Y-103904592D01*
X125733903Y-103676337D01*
X125634035Y-103462171D01*
X125628425Y-103454158D01*
X125498494Y-103268597D01*
X125331401Y-103101505D01*
X125329579Y-103099976D01*
X125328996Y-103099100D01*
X125327573Y-103097677D01*
X125327859Y-103097390D01*
X125290880Y-103041802D01*
X125289776Y-102971941D01*
X125326616Y-102912573D01*
X125370289Y-102887284D01*
X125379120Y-102884357D01*
X125379124Y-102884356D01*
X125528345Y-102792315D01*
X125652315Y-102668345D01*
X125744356Y-102519124D01*
X125744358Y-102519119D01*
X125799505Y-102352697D01*
X125799506Y-102352690D01*
X125809999Y-102249986D01*
X125810000Y-102249973D01*
X125810000Y-101850000D01*
X124893012Y-101850000D01*
X124925925Y-101792993D01*
X124960000Y-101665826D01*
X124960000Y-101534174D01*
X124925925Y-101407007D01*
X124893012Y-101350000D01*
X125809999Y-101350000D01*
X125809999Y-100950028D01*
X125809998Y-100950013D01*
X125799505Y-100847302D01*
X125744358Y-100680880D01*
X125744356Y-100680875D01*
X125652315Y-100531654D01*
X125528345Y-100407684D01*
X125379124Y-100315643D01*
X125379119Y-100315641D01*
X125212697Y-100260494D01*
X125212690Y-100260493D01*
X125109986Y-100250000D01*
X124710000Y-100250000D01*
X124710000Y-101166988D01*
X124652993Y-101134075D01*
X124525826Y-101100000D01*
X124394174Y-101100000D01*
X124267007Y-101134075D01*
X124210000Y-101166988D01*
X124210000Y-100250000D01*
X123810028Y-100250000D01*
X123810012Y-100250001D01*
X123707302Y-100260494D01*
X123540880Y-100315641D01*
X123540875Y-100315643D01*
X123391654Y-100407684D01*
X123267684Y-100531654D01*
X123175643Y-100680875D01*
X123175641Y-100680880D01*
X123151718Y-100753076D01*
X123111945Y-100810521D01*
X123047429Y-100837344D01*
X123036087Y-100837463D01*
X122402962Y-101470589D01*
X122385925Y-101407007D01*
X122320099Y-101292993D01*
X122227007Y-101199901D01*
X122112993Y-101134075D01*
X122049410Y-101117037D01*
X122681373Y-100485073D01*
X122681373Y-100485072D01*
X122597583Y-100426402D01*
X122597579Y-100426400D01*
X122383492Y-100326570D01*
X122383483Y-100326566D01*
X122155326Y-100265432D01*
X122155315Y-100265430D01*
X121920002Y-100244843D01*
X121919998Y-100244843D01*
X121684684Y-100265430D01*
X121684673Y-100265432D01*
X121456516Y-100326566D01*
X121456507Y-100326570D01*
X121242419Y-100426401D01*
X121158625Y-100485072D01*
X121790590Y-101117037D01*
X121727007Y-101134075D01*
X121612993Y-101199901D01*
X121519901Y-101292993D01*
X121454075Y-101407007D01*
X121437037Y-101470590D01*
X120805072Y-100838625D01*
X120805072Y-100838626D01*
X120751574Y-100915030D01*
X120696998Y-100958655D01*
X120627499Y-100965849D01*
X120565144Y-100934326D01*
X120548424Y-100915030D01*
X120494925Y-100838626D01*
X120494925Y-100838625D01*
X119862962Y-101470589D01*
X119845925Y-101407007D01*
X119780099Y-101292993D01*
X119687007Y-101199901D01*
X119572993Y-101134075D01*
X119509410Y-101117037D01*
X120141373Y-100485073D01*
X120141373Y-100485072D01*
X120057583Y-100426402D01*
X120057579Y-100426400D01*
X119843492Y-100326570D01*
X119843483Y-100326566D01*
X119615326Y-100265432D01*
X119615315Y-100265430D01*
X119380002Y-100244843D01*
X119379998Y-100244843D01*
X119144684Y-100265430D01*
X119144673Y-100265432D01*
X118916516Y-100326566D01*
X118916507Y-100326570D01*
X118702419Y-100426401D01*
X118618625Y-100485072D01*
X119250590Y-101117037D01*
X119187007Y-101134075D01*
X119072993Y-101199901D01*
X118979901Y-101292993D01*
X118914075Y-101407007D01*
X118897037Y-101470590D01*
X118265072Y-100838625D01*
X118265072Y-100838626D01*
X118211574Y-100915030D01*
X118156998Y-100958655D01*
X118087499Y-100965849D01*
X118025144Y-100934326D01*
X118008424Y-100915030D01*
X117954925Y-100838626D01*
X117954925Y-100838625D01*
X117322962Y-101470589D01*
X117305925Y-101407007D01*
X117240099Y-101292993D01*
X117147007Y-101199901D01*
X117032993Y-101134075D01*
X116969410Y-101117037D01*
X117601373Y-100485073D01*
X117601373Y-100485072D01*
X117517583Y-100426402D01*
X117517579Y-100426400D01*
X117303492Y-100326570D01*
X117303483Y-100326566D01*
X117075326Y-100265432D01*
X117075315Y-100265430D01*
X116840002Y-100244843D01*
X116839998Y-100244843D01*
X116604684Y-100265430D01*
X116604673Y-100265432D01*
X116376516Y-100326566D01*
X116376507Y-100326570D01*
X116162419Y-100426401D01*
X116078625Y-100485072D01*
X116710590Y-101117037D01*
X116647007Y-101134075D01*
X116532993Y-101199901D01*
X116439901Y-101292993D01*
X116374075Y-101407007D01*
X116357037Y-101470590D01*
X115725073Y-100838626D01*
X115671881Y-100914594D01*
X115617304Y-100958219D01*
X115547806Y-100965413D01*
X115485451Y-100933891D01*
X115468730Y-100914594D01*
X115338494Y-100728597D01*
X115171402Y-100561506D01*
X115171395Y-100561501D01*
X114977834Y-100425967D01*
X114977830Y-100425965D01*
X114938626Y-100407684D01*
X114763663Y-100326097D01*
X114763659Y-100326096D01*
X114763655Y-100326094D01*
X114535413Y-100264938D01*
X114535403Y-100264936D01*
X114300001Y-100244341D01*
X114299999Y-100244341D01*
X114064596Y-100264936D01*
X114064586Y-100264938D01*
X113836344Y-100326094D01*
X113836335Y-100326098D01*
X113622171Y-100425964D01*
X113622169Y-100425965D01*
X113428597Y-100561505D01*
X113261505Y-100728597D01*
X113131575Y-100914158D01*
X113076998Y-100957783D01*
X113007500Y-100964977D01*
X112945145Y-100933454D01*
X112928425Y-100914158D01*
X112798494Y-100728597D01*
X112631402Y-100561506D01*
X112631395Y-100561501D01*
X112437834Y-100425967D01*
X112437830Y-100425965D01*
X112398626Y-100407684D01*
X112223663Y-100326097D01*
X112223659Y-100326096D01*
X112223655Y-100326094D01*
X111995413Y-100264938D01*
X111995403Y-100264936D01*
X111760001Y-100244341D01*
X111759999Y-100244341D01*
X111524596Y-100264936D01*
X111524586Y-100264938D01*
X111296344Y-100326094D01*
X111296335Y-100326098D01*
X111082171Y-100425964D01*
X111082169Y-100425965D01*
X110888597Y-100561505D01*
X110721505Y-100728597D01*
X110591575Y-100914158D01*
X110536998Y-100957783D01*
X110467500Y-100964977D01*
X110405145Y-100933454D01*
X110388425Y-100914158D01*
X110258494Y-100728597D01*
X110091402Y-100561506D01*
X110091395Y-100561501D01*
X109897834Y-100425967D01*
X109897830Y-100425965D01*
X109858626Y-100407684D01*
X109683663Y-100326097D01*
X109683659Y-100326096D01*
X109683655Y-100326094D01*
X109455413Y-100264938D01*
X109455403Y-100264936D01*
X109220001Y-100244341D01*
X109219999Y-100244341D01*
X108984596Y-100264936D01*
X108984586Y-100264938D01*
X108756344Y-100326094D01*
X108756335Y-100326098D01*
X108542171Y-100425964D01*
X108542169Y-100425965D01*
X108348597Y-100561505D01*
X108181505Y-100728597D01*
X108051575Y-100914158D01*
X107996998Y-100957783D01*
X107927500Y-100964977D01*
X107865145Y-100933454D01*
X107848425Y-100914158D01*
X107718494Y-100728597D01*
X107551402Y-100561506D01*
X107551395Y-100561501D01*
X107357834Y-100425967D01*
X107357830Y-100425965D01*
X107318626Y-100407684D01*
X107143663Y-100326097D01*
X107143659Y-100326096D01*
X107143655Y-100326094D01*
X106915413Y-100264938D01*
X106915403Y-100264936D01*
X106680001Y-100244341D01*
X106679999Y-100244341D01*
X106444596Y-100264936D01*
X106444586Y-100264938D01*
X106216344Y-100326094D01*
X106216335Y-100326098D01*
X106002171Y-100425964D01*
X106002169Y-100425965D01*
X105808597Y-100561505D01*
X105641505Y-100728597D01*
X105511575Y-100914158D01*
X105456998Y-100957783D01*
X105387500Y-100964977D01*
X105325145Y-100933454D01*
X105308425Y-100914158D01*
X105178494Y-100728597D01*
X105011402Y-100561506D01*
X105011395Y-100561501D01*
X104817834Y-100425967D01*
X104817830Y-100425965D01*
X104778626Y-100407684D01*
X104603663Y-100326097D01*
X104603659Y-100326096D01*
X104603655Y-100326094D01*
X104375413Y-100264938D01*
X104375403Y-100264936D01*
X104140001Y-100244341D01*
X104139999Y-100244341D01*
X103904596Y-100264936D01*
X103904586Y-100264938D01*
X103676344Y-100326094D01*
X103676335Y-100326098D01*
X103462171Y-100425964D01*
X103462169Y-100425965D01*
X103268597Y-100561505D01*
X103101505Y-100728597D01*
X102971575Y-100914158D01*
X102916998Y-100957783D01*
X102847500Y-100964977D01*
X102785145Y-100933454D01*
X102768425Y-100914158D01*
X102638494Y-100728597D01*
X102471402Y-100561506D01*
X102471395Y-100561501D01*
X102277834Y-100425967D01*
X102277830Y-100425965D01*
X102238626Y-100407684D01*
X102063663Y-100326097D01*
X102063659Y-100326096D01*
X102063655Y-100326094D01*
X101835413Y-100264938D01*
X101835403Y-100264936D01*
X101600001Y-100244341D01*
X101599999Y-100244341D01*
X101364596Y-100264936D01*
X101364586Y-100264938D01*
X101136344Y-100326094D01*
X101136335Y-100326098D01*
X100922171Y-100425964D01*
X100922169Y-100425965D01*
X100728597Y-100561505D01*
X100561505Y-100728597D01*
X100425965Y-100922169D01*
X100425964Y-100922171D01*
X100326098Y-101136335D01*
X100326094Y-101136344D01*
X100264938Y-101364586D01*
X100264936Y-101364596D01*
X100244341Y-101599999D01*
X100244341Y-101600000D01*
X100264936Y-101835403D01*
X100264938Y-101835413D01*
X100326094Y-102063655D01*
X100326096Y-102063659D01*
X100326097Y-102063663D01*
X100405597Y-102234151D01*
X100425965Y-102277830D01*
X100425967Y-102277834D01*
X100528858Y-102424777D01*
X100561501Y-102471396D01*
X100561506Y-102471402D01*
X100728597Y-102638493D01*
X100728603Y-102638498D01*
X100914158Y-102768425D01*
X100957783Y-102823002D01*
X100964977Y-102892500D01*
X100933454Y-102954855D01*
X100914158Y-102971575D01*
X100728597Y-103101505D01*
X100561505Y-103268597D01*
X100425965Y-103462169D01*
X100425964Y-103462171D01*
X100326098Y-103676335D01*
X100326094Y-103676344D01*
X100264938Y-103904586D01*
X100264936Y-103904596D01*
X100244341Y-104139999D01*
X100244341Y-104140000D01*
X100264936Y-104375403D01*
X100264938Y-104375413D01*
X100326094Y-104603655D01*
X100326096Y-104603660D01*
X100326097Y-104603663D01*
X100347386Y-104649318D01*
X100354864Y-104665354D01*
X100360199Y-104678789D01*
X100367890Y-104702024D01*
X100367893Y-104702030D01*
X100605411Y-105178493D01*
X100911953Y-105793422D01*
X100986475Y-105942913D01*
X100999500Y-105998234D01*
X100999500Y-106081972D01*
X100991978Y-106124503D01*
X100851831Y-106508320D01*
X100838928Y-106548882D01*
X100838925Y-106548894D01*
X100838754Y-106550281D01*
X100832735Y-106576006D01*
X100814631Y-106627745D01*
X100814631Y-106627746D01*
X100794435Y-106806996D01*
X100794435Y-106807003D01*
X100814630Y-106986249D01*
X100814631Y-106986254D01*
X100874211Y-107156523D01*
X100926039Y-107239006D01*
X100970184Y-107309262D01*
X101097738Y-107436816D01*
X101150544Y-107469996D01*
X101236999Y-107524320D01*
X101250478Y-107532789D01*
X101383873Y-107579466D01*
X101420745Y-107592368D01*
X101420750Y-107592369D01*
X101599996Y-107612565D01*
X101600000Y-107612565D01*
X101600004Y-107612565D01*
X101779249Y-107592369D01*
X101779252Y-107592368D01*
X101779255Y-107592368D01*
X101949522Y-107532789D01*
X102102262Y-107436816D01*
X102229816Y-107309262D01*
X102325789Y-107156522D01*
X102385368Y-106986255D01*
X102391392Y-106932789D01*
X102405565Y-106807003D01*
X102405565Y-106806996D01*
X102385369Y-106627750D01*
X102385368Y-106627746D01*
X102385368Y-106627745D01*
X102357729Y-106548760D01*
X102353428Y-106533335D01*
X102348166Y-106508312D01*
X102208022Y-106124502D01*
X102200500Y-106081971D01*
X102200500Y-105998232D01*
X102213525Y-105942911D01*
X102273554Y-105822493D01*
X102677883Y-105011402D01*
X102759024Y-104848632D01*
X102806549Y-104797416D01*
X102874220Y-104780025D01*
X102940551Y-104801980D01*
X102980974Y-104848632D01*
X103145413Y-105178498D01*
X103417666Y-105724642D01*
X103526475Y-105942913D01*
X103539500Y-105998234D01*
X103539500Y-107097972D01*
X103531978Y-107140503D01*
X103391831Y-107524320D01*
X103378928Y-107564882D01*
X103378925Y-107564894D01*
X103378754Y-107566281D01*
X103372735Y-107592006D01*
X103354631Y-107643745D01*
X103337081Y-107799506D01*
X103310014Y-107863920D01*
X103252419Y-107903475D01*
X103182582Y-107905612D01*
X103181768Y-107905397D01*
X103105413Y-107884938D01*
X103105403Y-107884936D01*
X102870001Y-107864341D01*
X102869999Y-107864341D01*
X102634596Y-107884936D01*
X102634586Y-107884938D01*
X102406344Y-107946094D01*
X102406335Y-107946098D01*
X102192171Y-108045964D01*
X102192169Y-108045965D01*
X101998597Y-108181505D01*
X101831505Y-108348597D01*
X101701575Y-108534158D01*
X101646998Y-108577783D01*
X101577500Y-108584977D01*
X101515145Y-108553454D01*
X101498425Y-108534158D01*
X101368494Y-108348597D01*
X101201402Y-108181506D01*
X101201395Y-108181501D01*
X101007834Y-108045967D01*
X101007830Y-108045965D01*
X100971573Y-108029058D01*
X100793663Y-107946097D01*
X100793659Y-107946096D01*
X100793655Y-107946094D01*
X100565413Y-107884938D01*
X100565403Y-107884936D01*
X100330001Y-107864341D01*
X100329999Y-107864341D01*
X100094596Y-107884936D01*
X100094586Y-107884938D01*
X99866344Y-107946094D01*
X99866335Y-107946098D01*
X99652171Y-108045964D01*
X99652169Y-108045965D01*
X99458597Y-108181505D01*
X99291505Y-108348597D01*
X99161575Y-108534158D01*
X99106998Y-108577783D01*
X99037500Y-108584977D01*
X98975145Y-108553454D01*
X98958425Y-108534158D01*
X98828494Y-108348597D01*
X98661402Y-108181506D01*
X98661395Y-108181501D01*
X98467834Y-108045967D01*
X98467830Y-108045965D01*
X98431573Y-108029058D01*
X98253663Y-107946097D01*
X98253659Y-107946096D01*
X98253655Y-107946094D01*
X98025413Y-107884938D01*
X98025403Y-107884936D01*
X97790001Y-107864341D01*
X97789999Y-107864341D01*
X97554596Y-107884936D01*
X97554586Y-107884938D01*
X97326344Y-107946094D01*
X97326335Y-107946098D01*
X97112171Y-108045964D01*
X97112169Y-108045965D01*
X96918597Y-108181505D01*
X96751505Y-108348597D01*
X96621575Y-108534158D01*
X96566998Y-108577783D01*
X96497500Y-108584977D01*
X96435145Y-108553454D01*
X96418425Y-108534158D01*
X96288494Y-108348597D01*
X96121402Y-108181506D01*
X96121395Y-108181501D01*
X95927834Y-108045967D01*
X95927830Y-108045965D01*
X95891573Y-108029058D01*
X95713663Y-107946097D01*
X95713659Y-107946096D01*
X95713655Y-107946094D01*
X95485413Y-107884938D01*
X95485403Y-107884936D01*
X95250001Y-107864341D01*
X95249999Y-107864341D01*
X95014596Y-107884936D01*
X95014586Y-107884938D01*
X94786344Y-107946094D01*
X94786335Y-107946098D01*
X94572171Y-108045964D01*
X94572169Y-108045965D01*
X94378597Y-108181505D01*
X94211505Y-108348597D01*
X94081575Y-108534158D01*
X94026998Y-108577783D01*
X93957500Y-108584977D01*
X93895145Y-108553454D01*
X93878425Y-108534158D01*
X93748494Y-108348597D01*
X93581402Y-108181506D01*
X93581395Y-108181501D01*
X93387834Y-108045967D01*
X93387830Y-108045965D01*
X93351573Y-108029058D01*
X93173663Y-107946097D01*
X93173659Y-107946096D01*
X93173655Y-107946094D01*
X92945413Y-107884938D01*
X92945403Y-107884936D01*
X92710001Y-107864341D01*
X92709999Y-107864341D01*
X92474596Y-107884936D01*
X92474586Y-107884938D01*
X92246344Y-107946094D01*
X92246335Y-107946098D01*
X92032171Y-108045964D01*
X92032169Y-108045965D01*
X91838597Y-108181505D01*
X91671505Y-108348597D01*
X91535965Y-108542169D01*
X91535964Y-108542171D01*
X91436098Y-108756335D01*
X91436094Y-108756344D01*
X91374938Y-108984586D01*
X91374936Y-108984596D01*
X91354341Y-109219999D01*
X86834118Y-109219999D01*
X86802335Y-109196206D01*
X86802328Y-109196202D01*
X86667482Y-109145908D01*
X86667483Y-109145908D01*
X86607883Y-109139501D01*
X86607881Y-109139500D01*
X86607873Y-109139500D01*
X86607864Y-109139500D01*
X84812129Y-109139500D01*
X84812123Y-109139501D01*
X84752516Y-109145908D01*
X84617671Y-109196202D01*
X84617664Y-109196206D01*
X84502455Y-109282452D01*
X84502452Y-109282455D01*
X84416206Y-109397664D01*
X84416202Y-109397671D01*
X84366997Y-109529598D01*
X84325126Y-109585532D01*
X84259661Y-109609949D01*
X84191388Y-109595097D01*
X84163134Y-109573946D01*
X84041082Y-109451894D01*
X83847578Y-109316399D01*
X83633492Y-109216570D01*
X83633486Y-109216567D01*
X83420000Y-109159364D01*
X83420000Y-110056988D01*
X83362993Y-110024075D01*
X83235826Y-109990000D01*
X83104174Y-109990000D01*
X82977007Y-110024075D01*
X82920000Y-110056988D01*
X82920000Y-109159364D01*
X82919999Y-109159364D01*
X82706513Y-109216567D01*
X82706507Y-109216570D01*
X82492422Y-109316399D01*
X82492420Y-109316400D01*
X82298926Y-109451886D01*
X82298920Y-109451891D01*
X82131891Y-109618920D01*
X82131890Y-109618922D01*
X82001575Y-109805031D01*
X81946998Y-109848655D01*
X81877499Y-109855848D01*
X81815145Y-109824326D01*
X81798425Y-109805031D01*
X81668109Y-109618922D01*
X81668108Y-109618920D01*
X81501082Y-109451894D01*
X81307578Y-109316399D01*
X81093492Y-109216570D01*
X81093486Y-109216567D01*
X80880000Y-109159364D01*
X80880000Y-110056988D01*
X80822993Y-110024075D01*
X80695826Y-109990000D01*
X80564174Y-109990000D01*
X80437007Y-110024075D01*
X80380000Y-110056988D01*
X80380000Y-109159364D01*
X80379999Y-109159364D01*
X80166513Y-109216567D01*
X80166507Y-109216570D01*
X79952422Y-109316399D01*
X79952420Y-109316400D01*
X79758926Y-109451886D01*
X79758920Y-109451891D01*
X79591891Y-109618920D01*
X79591890Y-109618922D01*
X79461880Y-109804595D01*
X79407303Y-109848219D01*
X79337804Y-109855412D01*
X79275450Y-109823890D01*
X79258730Y-109804594D01*
X79128494Y-109618597D01*
X78961402Y-109451506D01*
X78961395Y-109451501D01*
X78767834Y-109315967D01*
X78767830Y-109315965D01*
X78767828Y-109315964D01*
X78553663Y-109216097D01*
X78553659Y-109216096D01*
X78553655Y-109216094D01*
X78325413Y-109154938D01*
X78325403Y-109154936D01*
X78090001Y-109134341D01*
X78089999Y-109134341D01*
X77854596Y-109154936D01*
X77854586Y-109154938D01*
X77626344Y-109216094D01*
X77626335Y-109216098D01*
X77412171Y-109315964D01*
X77412169Y-109315965D01*
X77218597Y-109451505D01*
X77051505Y-109618597D01*
X76926075Y-109797731D01*
X76871498Y-109841356D01*
X76802000Y-109848549D01*
X76739645Y-109817027D01*
X76704231Y-109756797D01*
X76700500Y-109726608D01*
X76700500Y-101599999D01*
X83099341Y-101599999D01*
X83099341Y-101600000D01*
X83119936Y-101835403D01*
X83119938Y-101835413D01*
X83181094Y-102063655D01*
X83181096Y-102063659D01*
X83181097Y-102063663D01*
X83260597Y-102234151D01*
X83280965Y-102277830D01*
X83280967Y-102277834D01*
X83383858Y-102424777D01*
X83416505Y-102471401D01*
X83583599Y-102638495D01*
X83680384Y-102706265D01*
X83777165Y-102774032D01*
X83777167Y-102774033D01*
X83777170Y-102774035D01*
X83991337Y-102873903D01*
X83991343Y-102873904D01*
X83991344Y-102873905D01*
X84030352Y-102884357D01*
X84219592Y-102935063D01*
X84396034Y-102950500D01*
X84454999Y-102955659D01*
X84455000Y-102955659D01*
X84455001Y-102955659D01*
X84513966Y-102950500D01*
X84690408Y-102935063D01*
X84918663Y-102873903D01*
X85132830Y-102774035D01*
X85326401Y-102638495D01*
X85448329Y-102516566D01*
X85509648Y-102483084D01*
X85579340Y-102488068D01*
X85635274Y-102529939D01*
X85652189Y-102560917D01*
X85701202Y-102692328D01*
X85701206Y-102692335D01*
X85787452Y-102807544D01*
X85787455Y-102807547D01*
X85902664Y-102893793D01*
X85902671Y-102893797D01*
X86037517Y-102944091D01*
X86037516Y-102944091D01*
X86044444Y-102944835D01*
X86097127Y-102950500D01*
X87892872Y-102950499D01*
X87952483Y-102944091D01*
X88087331Y-102893796D01*
X88202546Y-102807546D01*
X88288796Y-102692331D01*
X88339091Y-102557483D01*
X88345500Y-102497873D01*
X88345499Y-100702128D01*
X88339091Y-100642517D01*
X88337810Y-100639083D01*
X88288797Y-100507671D01*
X88288793Y-100507664D01*
X88202547Y-100392455D01*
X88202544Y-100392452D01*
X88087335Y-100306206D01*
X88087328Y-100306202D01*
X87952482Y-100255908D01*
X87952483Y-100255908D01*
X87892883Y-100249501D01*
X87892881Y-100249500D01*
X87892873Y-100249500D01*
X87892864Y-100249500D01*
X86097129Y-100249500D01*
X86097123Y-100249501D01*
X86037516Y-100255908D01*
X85902671Y-100306202D01*
X85902664Y-100306206D01*
X85787455Y-100392452D01*
X85787452Y-100392455D01*
X85701206Y-100507664D01*
X85701203Y-100507669D01*
X85652189Y-100639083D01*
X85610317Y-100695016D01*
X85544853Y-100719433D01*
X85476580Y-100704581D01*
X85448326Y-100683430D01*
X85326402Y-100561506D01*
X85326395Y-100561501D01*
X85132834Y-100425967D01*
X85132830Y-100425965D01*
X85093626Y-100407684D01*
X84918663Y-100326097D01*
X84918659Y-100326096D01*
X84918655Y-100326094D01*
X84690413Y-100264938D01*
X84690403Y-100264936D01*
X84455001Y-100244341D01*
X84454999Y-100244341D01*
X84219596Y-100264936D01*
X84219586Y-100264938D01*
X83991344Y-100326094D01*
X83991335Y-100326098D01*
X83777171Y-100425964D01*
X83777169Y-100425965D01*
X83583597Y-100561505D01*
X83416505Y-100728597D01*
X83280965Y-100922169D01*
X83280964Y-100922171D01*
X83181098Y-101136335D01*
X83181094Y-101136344D01*
X83119938Y-101364586D01*
X83119936Y-101364596D01*
X83099341Y-101599999D01*
X76700500Y-101599999D01*
X76700500Y-98796961D01*
X76701280Y-98783077D01*
X76701280Y-98783076D01*
X76711459Y-98692731D01*
X76717635Y-98665670D01*
X76745353Y-98586456D01*
X76757396Y-98561450D01*
X76802046Y-98490389D01*
X76819351Y-98468690D01*
X76878690Y-98409351D01*
X76900389Y-98392046D01*
X76971450Y-98347396D01*
X76996456Y-98335353D01*
X77075670Y-98307635D01*
X77102733Y-98301459D01*
X77165419Y-98294396D01*
X77193079Y-98291280D01*
X77206962Y-98290500D01*
X77265892Y-98290500D01*
X134570108Y-98290500D01*
X134629038Y-98290500D01*
X134642922Y-98291280D01*
G37*
%TD.AperFunction*%
%TA.AperFunction,Conductor*%
G36*
X82704075Y-110297007D02*
G01*
X82670000Y-110424174D01*
X82670000Y-110555826D01*
X82704075Y-110682993D01*
X82736988Y-110740000D01*
X81063012Y-110740000D01*
X81095925Y-110682993D01*
X81130000Y-110555826D01*
X81130000Y-110424174D01*
X81095925Y-110297007D01*
X81063012Y-110240000D01*
X82736988Y-110240000D01*
X82704075Y-110297007D01*
G37*
%TD.AperFunction*%
%TD*%
%TA.AperFunction,Conductor*%
%TO.N,/WR*%
G36*
X104144489Y-104140865D02*
G01*
X104913724Y-104460472D01*
X104920049Y-104466811D01*
X104920040Y-104475766D01*
X104919706Y-104476497D01*
X104243230Y-105833520D01*
X104236472Y-105839395D01*
X104232759Y-105840000D01*
X104047241Y-105840000D01*
X104038968Y-105836573D01*
X104036770Y-105833520D01*
X103360293Y-104476497D01*
X103359669Y-104467564D01*
X103365544Y-104460806D01*
X103366261Y-104460478D01*
X104135511Y-104140864D01*
X104144466Y-104140856D01*
X104144489Y-104140865D01*
G37*
%TD.AperFunction*%
%TD*%
%TA.AperFunction,Conductor*%
%TO.N,/WR*%
G36*
X104240090Y-107226427D02*
G01*
X104242807Y-107230687D01*
X104413330Y-107697694D01*
X104412949Y-107706641D01*
X104406851Y-107712503D01*
X104144511Y-107822115D01*
X104135556Y-107822142D01*
X104135489Y-107822115D01*
X103873148Y-107712503D01*
X103866836Y-107706151D01*
X103866669Y-107697697D01*
X104037193Y-107230686D01*
X104043249Y-107224091D01*
X104048183Y-107223000D01*
X104231817Y-107223000D01*
X104240090Y-107226427D01*
G37*
%TD.AperFunction*%
%TD*%
%TA.AperFunction,Conductor*%
%TO.N,/~{DRVEN}*%
G36*
X109224489Y-104140865D02*
G01*
X109993724Y-104460472D01*
X110000049Y-104466811D01*
X110000040Y-104475766D01*
X109999706Y-104476497D01*
X109323230Y-105833520D01*
X109316472Y-105839395D01*
X109312759Y-105840000D01*
X109127241Y-105840000D01*
X109118968Y-105836573D01*
X109116770Y-105833520D01*
X108440293Y-104476497D01*
X108439669Y-104467564D01*
X108445544Y-104460806D01*
X108446261Y-104460478D01*
X109215511Y-104140864D01*
X109224466Y-104140856D01*
X109224489Y-104140865D01*
G37*
%TD.AperFunction*%
%TD*%
%TA.AperFunction,Conductor*%
%TO.N,/~{DRVEN}*%
G36*
X103652669Y-108899511D02*
G01*
X103658994Y-108905850D01*
X103659275Y-108906603D01*
X104026337Y-110003400D01*
X104140494Y-110344504D01*
X104139870Y-110353437D01*
X104137672Y-110356490D01*
X104006490Y-110487672D01*
X103998217Y-110491099D01*
X103994504Y-110490494D01*
X103584972Y-110353437D01*
X103330235Y-110268184D01*
X102556603Y-110009275D01*
X102549845Y-110003400D01*
X102549221Y-109994467D01*
X102549497Y-109993726D01*
X102867438Y-109223783D01*
X102873759Y-109217448D01*
X103643715Y-108899502D01*
X103652669Y-108899511D01*
G37*
%TD.AperFunction*%
%TD*%
%TA.AperFunction,Conductor*%
%TO.N,/PH2*%
G36*
X119384489Y-104140865D02*
G01*
X120153724Y-104460472D01*
X120160049Y-104466811D01*
X120160040Y-104475766D01*
X120159706Y-104476497D01*
X119483230Y-105833520D01*
X119476472Y-105839395D01*
X119472759Y-105840000D01*
X119287241Y-105840000D01*
X119278968Y-105836573D01*
X119276770Y-105833520D01*
X118600293Y-104476497D01*
X118599669Y-104467564D01*
X118605544Y-104460806D01*
X118606261Y-104460478D01*
X119375511Y-104140864D01*
X119384466Y-104140856D01*
X119384489Y-104140865D01*
G37*
%TD.AperFunction*%
%TD*%
%TA.AperFunction,Conductor*%
%TO.N,/PH2*%
G36*
X113812669Y-108899511D02*
G01*
X113818994Y-108905850D01*
X113819275Y-108906603D01*
X114186337Y-110003400D01*
X114300494Y-110344504D01*
X114299870Y-110353437D01*
X114297672Y-110356490D01*
X114166490Y-110487672D01*
X114158217Y-110491099D01*
X114154504Y-110490494D01*
X113744972Y-110353437D01*
X113490235Y-110268184D01*
X112716603Y-110009275D01*
X112709845Y-110003400D01*
X112709221Y-109994467D01*
X112709497Y-109993726D01*
X113027438Y-109223783D01*
X113033759Y-109217448D01*
X113803715Y-108899502D01*
X113812669Y-108899511D01*
G37*
%TD.AperFunction*%
%TD*%
%TA.AperFunction,Conductor*%
%TO.N,/PH3*%
G36*
X116844489Y-104140865D02*
G01*
X117613724Y-104460472D01*
X117620049Y-104466811D01*
X117620040Y-104475766D01*
X117619706Y-104476497D01*
X116943230Y-105833520D01*
X116936472Y-105839395D01*
X116932759Y-105840000D01*
X116747241Y-105840000D01*
X116738968Y-105836573D01*
X116736770Y-105833520D01*
X116060293Y-104476497D01*
X116059669Y-104467564D01*
X116065544Y-104460806D01*
X116066261Y-104460478D01*
X116835511Y-104140864D01*
X116844466Y-104140856D01*
X116844489Y-104140865D01*
G37*
%TD.AperFunction*%
%TD*%
%TA.AperFunction,Conductor*%
%TO.N,/PH3*%
G36*
X116703437Y-107950129D02*
G01*
X116706490Y-107952327D01*
X116837672Y-108083509D01*
X116841099Y-108091782D01*
X116840494Y-108095495D01*
X116359275Y-109533396D01*
X116353400Y-109540154D01*
X116344467Y-109540778D01*
X116343714Y-109540497D01*
X115573785Y-109222562D01*
X115567447Y-109216238D01*
X115249502Y-108446284D01*
X115249511Y-108437330D01*
X115255850Y-108431005D01*
X115256581Y-108430731D01*
X116694506Y-107949505D01*
X116703437Y-107950129D01*
G37*
%TD.AperFunction*%
%TD*%
%TA.AperFunction,Conductor*%
%TO.N,/RD*%
G36*
X106684489Y-104140865D02*
G01*
X107453724Y-104460472D01*
X107460049Y-104466811D01*
X107460040Y-104475766D01*
X107459706Y-104476497D01*
X106783230Y-105833520D01*
X106776472Y-105839395D01*
X106772759Y-105840000D01*
X106587241Y-105840000D01*
X106578968Y-105836573D01*
X106576770Y-105833520D01*
X105900293Y-104476497D01*
X105899669Y-104467564D01*
X105905544Y-104460806D01*
X105906261Y-104460478D01*
X106675511Y-104140864D01*
X106684466Y-104140856D01*
X106684489Y-104140865D01*
G37*
%TD.AperFunction*%
%TD*%
%TA.AperFunction,Conductor*%
%TO.N,/RD*%
G36*
X106780090Y-105610427D02*
G01*
X106782807Y-105614687D01*
X106953330Y-106081694D01*
X106952949Y-106090641D01*
X106946851Y-106096503D01*
X106684511Y-106206115D01*
X106675556Y-106206142D01*
X106675489Y-106206115D01*
X106413148Y-106096503D01*
X106406836Y-106090151D01*
X106406669Y-106081697D01*
X106577193Y-105614686D01*
X106583249Y-105608091D01*
X106588183Y-105607000D01*
X106771817Y-105607000D01*
X106780090Y-105610427D01*
G37*
%TD.AperFunction*%
%TD*%
%TA.AperFunction,Conductor*%
%TO.N,/WRPROT*%
G36*
X101604489Y-104140865D02*
G01*
X102373724Y-104460472D01*
X102380049Y-104466811D01*
X102380040Y-104475766D01*
X102379706Y-104476497D01*
X101703230Y-105833520D01*
X101696472Y-105839395D01*
X101692759Y-105840000D01*
X101507241Y-105840000D01*
X101498968Y-105836573D01*
X101496770Y-105833520D01*
X100820293Y-104476497D01*
X100819669Y-104467564D01*
X100825544Y-104460806D01*
X100826261Y-104460478D01*
X101595511Y-104140864D01*
X101604466Y-104140856D01*
X101604489Y-104140865D01*
G37*
%TD.AperFunction*%
%TD*%
%TA.AperFunction,Conductor*%
%TO.N,/WRPROT*%
G36*
X101700090Y-106210427D02*
G01*
X101702807Y-106214687D01*
X101873330Y-106681694D01*
X101872949Y-106690641D01*
X101866851Y-106696503D01*
X101604511Y-106806115D01*
X101595556Y-106806142D01*
X101595489Y-106806115D01*
X101333148Y-106696503D01*
X101326836Y-106690151D01*
X101326669Y-106681697D01*
X101497193Y-106214686D01*
X101503249Y-106208091D01*
X101508183Y-106207000D01*
X101691817Y-106207000D01*
X101700090Y-106210427D01*
G37*
%TD.AperFunction*%
%TD*%
%TA.AperFunction,Conductor*%
%TO.N,/~{WREQ}*%
G36*
X114304489Y-104140865D02*
G01*
X115073724Y-104460472D01*
X115080049Y-104466811D01*
X115080040Y-104475766D01*
X115079706Y-104476497D01*
X114403230Y-105833520D01*
X114396472Y-105839395D01*
X114392759Y-105840000D01*
X114207241Y-105840000D01*
X114198968Y-105836573D01*
X114196770Y-105833520D01*
X113520293Y-104476497D01*
X113519669Y-104467564D01*
X113525544Y-104460806D01*
X113526261Y-104460478D01*
X114295511Y-104140864D01*
X114304466Y-104140856D01*
X114304489Y-104140865D01*
G37*
%TD.AperFunction*%
%TD*%
%TA.AperFunction,Conductor*%
%TO.N,/~{WREQ}*%
G36*
X114400090Y-106873427D02*
G01*
X114402807Y-106877687D01*
X114573330Y-107344694D01*
X114572949Y-107353641D01*
X114566851Y-107359503D01*
X114304511Y-107469115D01*
X114295556Y-107469142D01*
X114295489Y-107469115D01*
X114033148Y-107359503D01*
X114026836Y-107353151D01*
X114026669Y-107344697D01*
X114197193Y-106877686D01*
X114203249Y-106871091D01*
X114208183Y-106870000D01*
X114391817Y-106870000D01*
X114400090Y-106873427D01*
G37*
%TD.AperFunction*%
%TD*%
M02*
