%TF.GenerationSoftware,KiCad,Pcbnew,8.0.5*%
%TF.CreationDate,2024-12-02T19:35:40-06:00*%
%TF.ProjectId,Apple-II-HXC-Gotek-Adapter,4170706c-652d-4494-992d-4858432d476f,v1.0*%
%TF.SameCoordinates,Original*%
%TF.FileFunction,Copper,L1,Top*%
%TF.FilePolarity,Positive*%
%FSLAX46Y46*%
G04 Gerber Fmt 4.6, Leading zero omitted, Abs format (unit mm)*
G04 Created by KiCad (PCBNEW 8.0.5) date 2024-12-02 19:35:40*
%MOMM*%
%LPD*%
G01*
G04 APERTURE LIST*
G04 Aperture macros list*
%AMRoundRect*
0 Rectangle with rounded corners*
0 $1 Rounding radius*
0 $2 $3 $4 $5 $6 $7 $8 $9 X,Y pos of 4 corners*
0 Add a 4 corners polygon primitive as box body*
4,1,4,$2,$3,$4,$5,$6,$7,$8,$9,$2,$3,0*
0 Add four circle primitives for the rounded corners*
1,1,$1+$1,$2,$3*
1,1,$1+$1,$4,$5*
1,1,$1+$1,$6,$7*
1,1,$1+$1,$8,$9*
0 Add four rect primitives between the rounded corners*
20,1,$1+$1,$2,$3,$4,$5,0*
20,1,$1+$1,$4,$5,$6,$7,0*
20,1,$1+$1,$6,$7,$8,$9,0*
20,1,$1+$1,$8,$9,$2,$3,0*%
G04 Aperture macros list end*
%TA.AperFunction,ComponentPad*%
%ADD10R,1.700000X1.700000*%
%TD*%
%TA.AperFunction,ComponentPad*%
%ADD11O,1.700000X1.700000*%
%TD*%
%TA.AperFunction,ComponentPad*%
%ADD12C,1.700000*%
%TD*%
%TA.AperFunction,ComponentPad*%
%ADD13RoundRect,0.250000X-0.600000X0.600000X-0.600000X-0.600000X0.600000X-0.600000X0.600000X0.600000X0*%
%TD*%
%TA.AperFunction,ViaPad*%
%ADD14C,0.600000*%
%TD*%
%TA.AperFunction,Conductor*%
%ADD15C,0.200000*%
%TD*%
%TA.AperFunction,Conductor*%
%ADD16C,0.500000*%
%TD*%
G04 APERTURE END LIST*
D10*
%TO.P,J4,1,Pin_1*%
%TO.N,/PH0-RX*%
X86995000Y-101600000D03*
D11*
%TO.P,J4,2,Pin_2*%
%TO.N,/PH1-TX*%
X84455000Y-101600000D03*
%TD*%
D12*
%TO.P,J2,20,Pin_20*%
%TO.N,/WRPROT*%
X101600000Y-104140000D03*
%TO.P,J2,19,Pin_19*%
%TO.N,unconnected-(J2-Pin_19-Pad19)*%
X101600000Y-101600000D03*
%TO.P,J2,18,Pin_18*%
%TO.N,/WR*%
X104140000Y-104140000D03*
%TO.P,J2,17,Pin_17*%
%TO.N,unconnected-(J2-Pin_17-Pad17)*%
X104140000Y-101600000D03*
%TO.P,J2,16,Pin_16*%
%TO.N,/RD*%
X106680000Y-104140000D03*
%TO.P,J2,15,Pin_15*%
%TO.N,unconnected-(J2-Pin_15-Pad15)*%
X106680000Y-101600000D03*
%TO.P,J2,14,Pin_14*%
%TO.N,/~{DRVEN}*%
X109220000Y-104140000D03*
%TO.P,J2,13,Pin_13*%
%TO.N,unconnected-(J2-Pin_13-Pad13)*%
X109220000Y-101600000D03*
%TO.P,J2,12,Pin_12*%
%TO.N,/SEL*%
X111760000Y-104140000D03*
%TO.P,J2,11,Pin_11*%
%TO.N,+5V*%
X111760000Y-101600000D03*
%TO.P,J2,10,Pin_10*%
%TO.N,/~{WREQ}*%
X114300000Y-104140000D03*
%TO.P,J2,9,Pin_9*%
%TO.N,unconnected-(J2-Pin_9-Pad9)*%
X114300000Y-101600000D03*
%TO.P,J2,8,Pin_8*%
%TO.N,/PH3*%
X116840000Y-104140000D03*
%TO.P,J2,7,Pin_7*%
%TO.N,GND*%
X116840000Y-101600000D03*
%TO.P,J2,6,Pin_6*%
%TO.N,/PH2*%
X119380000Y-104140000D03*
%TO.P,J2,5,Pin_5*%
%TO.N,GND*%
X119380000Y-101600000D03*
%TO.P,J2,4,Pin_4*%
%TO.N,/PH1-TX*%
X121920000Y-104140000D03*
%TO.P,J2,3,Pin_3*%
%TO.N,GND*%
X121920000Y-101600000D03*
%TO.P,J2,2,Pin_2*%
%TO.N,/PH0-RX*%
X124460000Y-104140000D03*
D13*
%TO.P,J2,1,Pin_1*%
%TO.N,GND*%
X124460000Y-101600000D03*
%TD*%
D10*
%TO.P,J3,1,Pin_1*%
%TO.N,+5V*%
X85710000Y-110490000D03*
D11*
%TO.P,J3,2,Pin_2*%
%TO.N,GND*%
X83170000Y-110490000D03*
%TO.P,J3,3,Pin_3*%
X80630000Y-110490000D03*
%TO.P,J3,4,Pin_4*%
%TO.N,unconnected-(J3-Pin_4-Pad4)*%
X78090000Y-110490000D03*
%TD*%
D10*
%TO.P,J1,1,Pin_1*%
%TO.N,GND*%
X92710000Y-111760000D03*
D11*
%TO.P,J1,2,Pin_2*%
%TO.N,unconnected-(J1-Pin_2-Pad2)*%
X92710000Y-109220000D03*
%TO.P,J1,3,Pin_3*%
%TO.N,GND*%
X95250000Y-111760000D03*
%TO.P,J1,4,Pin_4*%
%TO.N,unconnected-(J1-Pin_4-Pad4)*%
X95250000Y-109220000D03*
%TO.P,J1,5,Pin_5*%
%TO.N,GND*%
X97790000Y-111760000D03*
%TO.P,J1,6,Pin_6*%
%TO.N,unconnected-(J1-Pin_6-Pad6)*%
X97790000Y-109220000D03*
%TO.P,J1,7,Pin_7*%
%TO.N,GND*%
X100330000Y-111760000D03*
%TO.P,J1,8,Pin_8*%
%TO.N,unconnected-(J1-Pin_8-Pad8)*%
X100330000Y-109220000D03*
%TO.P,J1,9,Pin_9*%
%TO.N,GND*%
X102870000Y-111760000D03*
%TO.P,J1,10,Pin_10*%
%TO.N,/~{DRVEN}*%
X102870000Y-109220000D03*
%TO.P,J1,11,Pin_11*%
%TO.N,GND*%
X105410000Y-111760000D03*
%TO.P,J1,12,Pin_12*%
%TO.N,unconnected-(J1-Pin_12-Pad12)*%
X105410000Y-109220000D03*
%TO.P,J1,13,Pin_13*%
%TO.N,GND*%
X107950000Y-111760000D03*
%TO.P,J1,14,Pin_14*%
%TO.N,unconnected-(J1-Pin_14-Pad14)*%
X107950000Y-109220000D03*
%TO.P,J1,15,Pin_15*%
%TO.N,GND*%
X110490000Y-111760000D03*
%TO.P,J1,16,Pin_16*%
%TO.N,unconnected-(J1-Pin_16-Pad16)*%
X110490000Y-109220000D03*
%TO.P,J1,17,Pin_17*%
%TO.N,GND*%
X113030000Y-111760000D03*
%TO.P,J1,18,Pin_18*%
%TO.N,/PH2*%
X113030000Y-109220000D03*
%TO.P,J1,19,Pin_19*%
%TO.N,GND*%
X115570000Y-111760000D03*
%TO.P,J1,20,Pin_20*%
%TO.N,/PH3*%
X115570000Y-109220000D03*
%TO.P,J1,21,Pin_21*%
%TO.N,GND*%
X118110000Y-111760000D03*
%TO.P,J1,22,Pin_22*%
%TO.N,/WR*%
X118110000Y-109220000D03*
%TO.P,J1,23,Pin_23*%
%TO.N,GND*%
X120650000Y-111760000D03*
%TO.P,J1,24,Pin_24*%
%TO.N,/~{WREQ}*%
X120650000Y-109220000D03*
%TO.P,J1,25,Pin_25*%
%TO.N,GND*%
X123190000Y-111760000D03*
%TO.P,J1,26,Pin_26*%
%TO.N,unconnected-(J1-Pin_26-Pad26)*%
X123190000Y-109220000D03*
%TO.P,J1,27,Pin_27*%
%TO.N,GND*%
X125730000Y-111760000D03*
%TO.P,J1,28,Pin_28*%
%TO.N,/WRPROT*%
X125730000Y-109220000D03*
%TO.P,J1,29,Pin_29*%
%TO.N,GND*%
X128270000Y-111760000D03*
%TO.P,J1,30,Pin_30*%
%TO.N,/RD*%
X128270000Y-109220000D03*
%TO.P,J1,31,Pin_31*%
%TO.N,GND*%
X130810000Y-111760000D03*
%TO.P,J1,32,Pin_32*%
%TO.N,/SEL*%
X130810000Y-109220000D03*
%TO.P,J1,33,Pin_33*%
%TO.N,GND*%
X133350000Y-111760000D03*
%TO.P,J1,34,Pin_34*%
%TO.N,unconnected-(J1-Pin_34-Pad34)*%
X133350000Y-109220000D03*
%TD*%
D14*
%TO.N,/RD*%
X106680000Y-106207000D03*
%TO.N,/WRPROT*%
X101600000Y-106807000D03*
%TO.N,/~{WREQ}*%
X114300000Y-107470000D03*
%TO.N,/WR*%
X104140000Y-107823000D03*
%TD*%
D15*
%TO.N,/PH0-RX*%
X124860000Y-99587000D02*
X89008000Y-99587000D01*
X89008000Y-99587000D02*
X86995000Y-101600000D01*
X126092000Y-100819000D02*
X124860000Y-99587000D01*
X126092000Y-102889000D02*
X126092000Y-100819000D01*
X124841000Y-104140000D02*
X126092000Y-102889000D01*
X124460000Y-104140000D02*
X124841000Y-104140000D01*
%TO.N,/PH1-TX*%
X86868000Y-99187000D02*
X84455000Y-101600000D01*
X123070000Y-105290000D02*
X125215000Y-105290000D01*
X125215000Y-105290000D02*
X126619000Y-103886000D01*
X126619000Y-100457000D02*
X125349000Y-99187000D01*
X121920000Y-104140000D02*
X123070000Y-105290000D01*
X126619000Y-103886000D02*
X126619000Y-100457000D01*
X125349000Y-99187000D02*
X86868000Y-99187000D01*
%TO.N,/WR*%
X116960000Y-108070000D02*
X118110000Y-109220000D01*
X113918236Y-108070000D02*
X116960000Y-108070000D01*
X113671236Y-107823000D02*
X113918236Y-108070000D01*
X104140000Y-107823000D02*
X113671236Y-107823000D01*
%TO.N,/RD*%
X106772000Y-106299000D02*
X106680000Y-106207000D01*
X125349000Y-106299000D02*
X106772000Y-106299000D01*
X128270000Y-109220000D02*
X125349000Y-106299000D01*
%TO.N,/WRPROT*%
X123317000Y-106807000D02*
X101600000Y-106807000D01*
X125730000Y-109220000D02*
X123317000Y-106807000D01*
D16*
%TO.N,+5V*%
X110363000Y-100203000D02*
X95997000Y-100203000D01*
X111760000Y-101600000D02*
X110363000Y-100203000D01*
X95997000Y-100203000D02*
X85710000Y-110490000D01*
D15*
%TO.N,/SEL*%
X113411000Y-105791000D02*
X111760000Y-104140000D01*
X127381000Y-105791000D02*
X113411000Y-105791000D01*
X130810000Y-109220000D02*
X127381000Y-105791000D01*
D16*
%TO.N,GND*%
X116840000Y-101600000D02*
X124460000Y-101600000D01*
D15*
%TO.N,/~{WREQ}*%
X118900000Y-107470000D02*
X114300000Y-107470000D01*
X120650000Y-109220000D02*
X118900000Y-107470000D01*
%TD*%
%TA.AperFunction,Conductor*%
%TO.N,GND*%
G36*
X134642922Y-98291280D02*
G01*
X134733266Y-98301459D01*
X134760331Y-98307636D01*
X134839540Y-98335352D01*
X134864553Y-98347398D01*
X134935606Y-98392043D01*
X134957313Y-98409355D01*
X135016644Y-98468686D01*
X135033957Y-98490395D01*
X135078600Y-98561444D01*
X135090648Y-98586462D01*
X135118362Y-98665666D01*
X135124540Y-98692735D01*
X135134720Y-98783076D01*
X135135500Y-98796961D01*
X135135500Y-112912038D01*
X135134720Y-112925923D01*
X135124540Y-113016264D01*
X135118362Y-113043333D01*
X135090648Y-113122537D01*
X135078600Y-113147555D01*
X135033957Y-113218604D01*
X135016644Y-113240313D01*
X134957313Y-113299644D01*
X134935604Y-113316957D01*
X134864555Y-113361600D01*
X134839537Y-113373648D01*
X134760333Y-113401362D01*
X134733264Y-113407540D01*
X134653075Y-113416576D01*
X134642921Y-113417720D01*
X134629038Y-113418500D01*
X77206962Y-113418500D01*
X77193078Y-113417720D01*
X77180553Y-113416308D01*
X77102735Y-113407540D01*
X77075666Y-113401362D01*
X76996462Y-113373648D01*
X76971444Y-113361600D01*
X76900395Y-113316957D01*
X76878686Y-113299644D01*
X76819355Y-113240313D01*
X76802042Y-113218604D01*
X76757399Y-113147555D01*
X76745351Y-113122537D01*
X76740964Y-113110000D01*
X76717636Y-113043331D01*
X76711459Y-113016263D01*
X76705929Y-112967187D01*
X76701280Y-112925922D01*
X76700500Y-112912038D01*
X76700500Y-111253391D01*
X76720185Y-111186352D01*
X76772989Y-111140597D01*
X76842147Y-111130653D01*
X76905703Y-111159678D01*
X76926073Y-111182266D01*
X76975876Y-111253391D01*
X77051281Y-111361082D01*
X77051505Y-111361401D01*
X77218599Y-111528495D01*
X77315384Y-111596265D01*
X77412165Y-111664032D01*
X77412167Y-111664033D01*
X77412170Y-111664035D01*
X77626337Y-111763903D01*
X77854592Y-111825063D01*
X78031034Y-111840500D01*
X78089999Y-111845659D01*
X78090000Y-111845659D01*
X78090001Y-111845659D01*
X78148966Y-111840500D01*
X78325408Y-111825063D01*
X78553663Y-111763903D01*
X78767830Y-111664035D01*
X78961401Y-111528495D01*
X79128495Y-111361401D01*
X79258730Y-111175405D01*
X79313307Y-111131781D01*
X79382805Y-111124587D01*
X79445160Y-111156110D01*
X79461879Y-111175405D01*
X79591890Y-111361078D01*
X79758917Y-111528105D01*
X79952421Y-111663600D01*
X80166507Y-111763429D01*
X80166516Y-111763433D01*
X80380000Y-111820634D01*
X80380000Y-110923012D01*
X80437007Y-110955925D01*
X80564174Y-110990000D01*
X80695826Y-110990000D01*
X80822993Y-110955925D01*
X80880000Y-110923012D01*
X80880000Y-111820633D01*
X81093483Y-111763433D01*
X81093492Y-111763429D01*
X81307578Y-111663600D01*
X81501082Y-111528105D01*
X81668105Y-111361082D01*
X81798425Y-111174968D01*
X81853002Y-111131344D01*
X81922501Y-111124151D01*
X81984855Y-111155673D01*
X82001575Y-111174968D01*
X82131894Y-111361082D01*
X82298917Y-111528105D01*
X82492421Y-111663600D01*
X82706507Y-111763429D01*
X82706516Y-111763433D01*
X82920000Y-111820634D01*
X82920000Y-110923012D01*
X82977007Y-110955925D01*
X83104174Y-110990000D01*
X83235826Y-110990000D01*
X83362993Y-110955925D01*
X83420000Y-110923012D01*
X83420000Y-111820633D01*
X83633483Y-111763433D01*
X83633492Y-111763429D01*
X83847578Y-111663600D01*
X84041078Y-111528108D01*
X84163133Y-111406053D01*
X84224456Y-111372568D01*
X84294148Y-111377552D01*
X84350082Y-111419423D01*
X84366997Y-111450401D01*
X84416202Y-111582328D01*
X84416206Y-111582335D01*
X84502452Y-111697544D01*
X84502455Y-111697547D01*
X84617664Y-111783793D01*
X84617671Y-111783797D01*
X84752517Y-111834091D01*
X84752516Y-111834091D01*
X84759444Y-111834835D01*
X84812127Y-111840500D01*
X86607872Y-111840499D01*
X86667483Y-111834091D01*
X86802331Y-111783796D01*
X86917546Y-111697546D01*
X87003796Y-111582331D01*
X87054091Y-111447483D01*
X87060500Y-111387873D01*
X87060499Y-110995321D01*
X87072634Y-110941822D01*
X87097935Y-110888920D01*
X87753803Y-109517558D01*
X87777983Y-109483383D01*
X96271549Y-100989819D01*
X96332872Y-100956334D01*
X96359230Y-100953500D01*
X100216714Y-100953500D01*
X100283753Y-100973185D01*
X100329508Y-101025989D01*
X100339452Y-101095147D01*
X100329098Y-101129901D01*
X100326098Y-101136334D01*
X100326094Y-101136344D01*
X100264938Y-101364586D01*
X100264936Y-101364596D01*
X100244341Y-101599999D01*
X100244341Y-101600000D01*
X100264936Y-101835403D01*
X100264938Y-101835413D01*
X100326094Y-102063655D01*
X100326096Y-102063659D01*
X100326097Y-102063663D01*
X100351524Y-102118191D01*
X100425965Y-102277830D01*
X100425967Y-102277834D01*
X100528858Y-102424777D01*
X100561501Y-102471396D01*
X100561506Y-102471402D01*
X100728597Y-102638493D01*
X100728603Y-102638498D01*
X100914158Y-102768425D01*
X100957783Y-102823002D01*
X100964977Y-102892500D01*
X100933454Y-102954855D01*
X100914158Y-102971575D01*
X100728597Y-103101505D01*
X100561505Y-103268597D01*
X100425965Y-103462169D01*
X100425964Y-103462171D01*
X100326098Y-103676335D01*
X100326094Y-103676344D01*
X100264938Y-103904586D01*
X100264936Y-103904596D01*
X100244341Y-104139999D01*
X100244341Y-104140000D01*
X100264936Y-104375403D01*
X100264938Y-104375413D01*
X100326094Y-104603655D01*
X100326096Y-104603659D01*
X100326097Y-104603663D01*
X100330000Y-104612032D01*
X100425965Y-104817830D01*
X100425967Y-104817834D01*
X100534281Y-104972521D01*
X100561505Y-105011401D01*
X100728599Y-105178495D01*
X100745744Y-105190500D01*
X100922165Y-105314032D01*
X100922167Y-105314033D01*
X100922170Y-105314035D01*
X101136337Y-105413903D01*
X101136343Y-105413904D01*
X101136344Y-105413905D01*
X101167623Y-105422286D01*
X101364592Y-105475063D01*
X101547777Y-105491090D01*
X101599999Y-105495659D01*
X101600000Y-105495659D01*
X101600001Y-105495659D01*
X101640930Y-105492078D01*
X101835408Y-105475063D01*
X102063663Y-105413903D01*
X102277830Y-105314035D01*
X102471401Y-105178495D01*
X102638495Y-105011401D01*
X102768425Y-104825842D01*
X102823002Y-104782217D01*
X102892500Y-104775023D01*
X102954855Y-104806546D01*
X102971575Y-104825842D01*
X103101500Y-105011395D01*
X103101505Y-105011401D01*
X103268599Y-105178495D01*
X103285744Y-105190500D01*
X103462165Y-105314032D01*
X103462167Y-105314033D01*
X103462170Y-105314035D01*
X103676337Y-105413903D01*
X103676343Y-105413904D01*
X103676344Y-105413905D01*
X103707623Y-105422286D01*
X103904592Y-105475063D01*
X104087777Y-105491090D01*
X104139999Y-105495659D01*
X104140000Y-105495659D01*
X104140001Y-105495659D01*
X104180930Y-105492078D01*
X104375408Y-105475063D01*
X104603663Y-105413903D01*
X104817830Y-105314035D01*
X105011401Y-105178495D01*
X105178495Y-105011401D01*
X105308425Y-104825842D01*
X105363002Y-104782217D01*
X105432500Y-104775023D01*
X105494855Y-104806546D01*
X105511575Y-104825842D01*
X105641500Y-105011395D01*
X105641505Y-105011401D01*
X105808599Y-105178495D01*
X105825744Y-105190500D01*
X106002165Y-105314032D01*
X106002167Y-105314033D01*
X106002170Y-105314035D01*
X106128363Y-105372880D01*
X106140870Y-105378712D01*
X106193309Y-105424884D01*
X106212461Y-105492078D01*
X106192245Y-105558959D01*
X106176147Y-105578775D01*
X106050183Y-105704739D01*
X105954210Y-105857478D01*
X105894630Y-106027750D01*
X105886898Y-106096383D01*
X105859832Y-106160797D01*
X105802237Y-106200352D01*
X105763678Y-106206500D01*
X102325027Y-106206500D01*
X102282496Y-106198978D01*
X101898687Y-106058834D01*
X101887104Y-106055150D01*
X101858111Y-106045927D01*
X101858104Y-106045926D01*
X101858095Y-106045924D01*
X101856718Y-106045754D01*
X101830992Y-106039735D01*
X101779252Y-106021631D01*
X101600004Y-106001435D01*
X101599996Y-106001435D01*
X101420750Y-106021630D01*
X101420745Y-106021631D01*
X101250476Y-106081211D01*
X101097737Y-106177184D01*
X100970184Y-106304737D01*
X100874211Y-106457476D01*
X100814631Y-106627745D01*
X100814630Y-106627750D01*
X100794435Y-106806996D01*
X100794435Y-106807003D01*
X100814630Y-106986249D01*
X100814631Y-106986254D01*
X100874211Y-107156523D01*
X100970184Y-107309262D01*
X101097738Y-107436816D01*
X101168707Y-107481409D01*
X101201563Y-107502054D01*
X101250478Y-107532789D01*
X101334187Y-107562080D01*
X101420745Y-107592368D01*
X101420750Y-107592369D01*
X101599996Y-107612565D01*
X101600000Y-107612565D01*
X101600004Y-107612565D01*
X101779249Y-107592369D01*
X101779250Y-107592368D01*
X101779255Y-107592368D01*
X101858251Y-107564725D01*
X101873651Y-107560431D01*
X101898687Y-107555166D01*
X102282495Y-107415022D01*
X102325026Y-107407500D01*
X103262535Y-107407500D01*
X103329574Y-107427185D01*
X103375329Y-107479989D01*
X103385273Y-107549147D01*
X103379577Y-107572454D01*
X103354632Y-107643742D01*
X103354630Y-107643749D01*
X103337081Y-107799506D01*
X103310014Y-107863920D01*
X103252419Y-107903475D01*
X103182582Y-107905612D01*
X103181768Y-107905397D01*
X103105413Y-107884938D01*
X103105403Y-107884936D01*
X102870001Y-107864341D01*
X102869999Y-107864341D01*
X102634596Y-107884936D01*
X102634586Y-107884938D01*
X102406344Y-107946094D01*
X102406335Y-107946098D01*
X102192171Y-108045964D01*
X102192169Y-108045965D01*
X101998597Y-108181505D01*
X101831505Y-108348597D01*
X101701575Y-108534158D01*
X101646998Y-108577783D01*
X101577500Y-108584977D01*
X101515145Y-108553454D01*
X101498425Y-108534158D01*
X101368494Y-108348597D01*
X101201402Y-108181506D01*
X101201395Y-108181501D01*
X101007834Y-108045967D01*
X101007830Y-108045965D01*
X101007828Y-108045964D01*
X100793663Y-107946097D01*
X100793659Y-107946096D01*
X100793655Y-107946094D01*
X100565413Y-107884938D01*
X100565403Y-107884936D01*
X100330001Y-107864341D01*
X100329999Y-107864341D01*
X100094596Y-107884936D01*
X100094586Y-107884938D01*
X99866344Y-107946094D01*
X99866335Y-107946098D01*
X99652171Y-108045964D01*
X99652169Y-108045965D01*
X99458597Y-108181505D01*
X99291505Y-108348597D01*
X99161575Y-108534158D01*
X99106998Y-108577783D01*
X99037500Y-108584977D01*
X98975145Y-108553454D01*
X98958425Y-108534158D01*
X98828494Y-108348597D01*
X98661402Y-108181506D01*
X98661395Y-108181501D01*
X98467834Y-108045967D01*
X98467830Y-108045965D01*
X98467828Y-108045964D01*
X98253663Y-107946097D01*
X98253659Y-107946096D01*
X98253655Y-107946094D01*
X98025413Y-107884938D01*
X98025403Y-107884936D01*
X97790001Y-107864341D01*
X97789999Y-107864341D01*
X97554596Y-107884936D01*
X97554586Y-107884938D01*
X97326344Y-107946094D01*
X97326335Y-107946098D01*
X97112171Y-108045964D01*
X97112169Y-108045965D01*
X96918597Y-108181505D01*
X96751505Y-108348597D01*
X96621575Y-108534158D01*
X96566998Y-108577783D01*
X96497500Y-108584977D01*
X96435145Y-108553454D01*
X96418425Y-108534158D01*
X96288494Y-108348597D01*
X96121402Y-108181506D01*
X96121395Y-108181501D01*
X95927834Y-108045967D01*
X95927830Y-108045965D01*
X95927828Y-108045964D01*
X95713663Y-107946097D01*
X95713659Y-107946096D01*
X95713655Y-107946094D01*
X95485413Y-107884938D01*
X95485403Y-107884936D01*
X95250001Y-107864341D01*
X95249999Y-107864341D01*
X95014596Y-107884936D01*
X95014586Y-107884938D01*
X94786344Y-107946094D01*
X94786335Y-107946098D01*
X94572171Y-108045964D01*
X94572169Y-108045965D01*
X94378597Y-108181505D01*
X94211505Y-108348597D01*
X94081575Y-108534158D01*
X94026998Y-108577783D01*
X93957500Y-108584977D01*
X93895145Y-108553454D01*
X93878425Y-108534158D01*
X93748494Y-108348597D01*
X93581402Y-108181506D01*
X93581395Y-108181501D01*
X93387834Y-108045967D01*
X93387830Y-108045965D01*
X93387828Y-108045964D01*
X93173663Y-107946097D01*
X93173659Y-107946096D01*
X93173655Y-107946094D01*
X92945413Y-107884938D01*
X92945403Y-107884936D01*
X92710001Y-107864341D01*
X92709999Y-107864341D01*
X92474596Y-107884936D01*
X92474586Y-107884938D01*
X92246344Y-107946094D01*
X92246335Y-107946098D01*
X92032171Y-108045964D01*
X92032169Y-108045965D01*
X91838597Y-108181505D01*
X91671505Y-108348597D01*
X91535965Y-108542169D01*
X91535964Y-108542171D01*
X91436098Y-108756335D01*
X91436094Y-108756344D01*
X91374938Y-108984586D01*
X91374936Y-108984596D01*
X91354341Y-109219999D01*
X91354341Y-109220000D01*
X91374936Y-109455403D01*
X91374938Y-109455413D01*
X91436094Y-109683655D01*
X91436096Y-109683659D01*
X91436097Y-109683663D01*
X91519358Y-109862217D01*
X91535965Y-109897830D01*
X91535967Y-109897834D01*
X91600503Y-109990000D01*
X91671501Y-110091396D01*
X91671506Y-110091402D01*
X91793818Y-110213714D01*
X91827303Y-110275037D01*
X91822319Y-110344729D01*
X91780447Y-110400662D01*
X91749471Y-110417577D01*
X91617912Y-110466646D01*
X91617906Y-110466649D01*
X91502812Y-110552809D01*
X91502809Y-110552812D01*
X91416649Y-110667906D01*
X91416645Y-110667913D01*
X91366403Y-110802620D01*
X91366401Y-110802627D01*
X91360000Y-110862155D01*
X91360000Y-111510000D01*
X92276988Y-111510000D01*
X92244075Y-111567007D01*
X92210000Y-111694174D01*
X92210000Y-111825826D01*
X92244075Y-111952993D01*
X92276988Y-112010000D01*
X91360000Y-112010000D01*
X91360000Y-112657844D01*
X91366401Y-112717372D01*
X91366403Y-112717379D01*
X91416645Y-112852086D01*
X91416649Y-112852093D01*
X91502809Y-112967187D01*
X91502812Y-112967190D01*
X91617906Y-113053350D01*
X91617913Y-113053354D01*
X91752620Y-113103596D01*
X91752627Y-113103598D01*
X91812155Y-113109999D01*
X91812172Y-113110000D01*
X92460000Y-113110000D01*
X92460000Y-112193012D01*
X92517007Y-112225925D01*
X92644174Y-112260000D01*
X92775826Y-112260000D01*
X92902993Y-112225925D01*
X92960000Y-112193012D01*
X92960000Y-113110000D01*
X93607828Y-113110000D01*
X93607844Y-113109999D01*
X93667372Y-113103598D01*
X93667379Y-113103596D01*
X93802086Y-113053354D01*
X93802093Y-113053350D01*
X93917187Y-112967190D01*
X93917190Y-112967187D01*
X94003350Y-112852093D01*
X94003354Y-112852086D01*
X94052614Y-112720013D01*
X94094485Y-112664079D01*
X94159949Y-112639662D01*
X94228222Y-112654513D01*
X94256477Y-112675665D01*
X94378917Y-112798105D01*
X94572421Y-112933600D01*
X94786507Y-113033429D01*
X94786516Y-113033433D01*
X95000000Y-113090634D01*
X95000000Y-112193012D01*
X95057007Y-112225925D01*
X95184174Y-112260000D01*
X95315826Y-112260000D01*
X95442993Y-112225925D01*
X95500000Y-112193012D01*
X95500000Y-113090633D01*
X95713483Y-113033433D01*
X95713492Y-113033429D01*
X95927578Y-112933600D01*
X96121082Y-112798105D01*
X96288105Y-112631082D01*
X96418425Y-112444968D01*
X96473002Y-112401344D01*
X96542501Y-112394151D01*
X96604855Y-112425673D01*
X96621575Y-112444968D01*
X96751894Y-112631082D01*
X96918917Y-112798105D01*
X97112421Y-112933600D01*
X97326507Y-113033429D01*
X97326516Y-113033433D01*
X97540000Y-113090634D01*
X97540000Y-112193012D01*
X97597007Y-112225925D01*
X97724174Y-112260000D01*
X97855826Y-112260000D01*
X97982993Y-112225925D01*
X98040000Y-112193012D01*
X98040000Y-113090633D01*
X98253483Y-113033433D01*
X98253492Y-113033429D01*
X98467578Y-112933600D01*
X98661082Y-112798105D01*
X98828105Y-112631082D01*
X98958425Y-112444968D01*
X99013002Y-112401344D01*
X99082501Y-112394151D01*
X99144855Y-112425673D01*
X99161575Y-112444968D01*
X99291894Y-112631082D01*
X99458917Y-112798105D01*
X99652421Y-112933600D01*
X99866507Y-113033429D01*
X99866516Y-113033433D01*
X100080000Y-113090634D01*
X100080000Y-112193012D01*
X100137007Y-112225925D01*
X100264174Y-112260000D01*
X100395826Y-112260000D01*
X100522993Y-112225925D01*
X100580000Y-112193012D01*
X100580000Y-113090633D01*
X100793483Y-113033433D01*
X100793492Y-113033429D01*
X101007578Y-112933600D01*
X101201082Y-112798105D01*
X101368105Y-112631082D01*
X101498425Y-112444968D01*
X101553002Y-112401344D01*
X101622501Y-112394151D01*
X101684855Y-112425673D01*
X101701575Y-112444968D01*
X101831894Y-112631082D01*
X101998917Y-112798105D01*
X102192421Y-112933600D01*
X102406507Y-113033429D01*
X102406516Y-113033433D01*
X102620000Y-113090634D01*
X102620000Y-112193012D01*
X102677007Y-112225925D01*
X102804174Y-112260000D01*
X102935826Y-112260000D01*
X103062993Y-112225925D01*
X103120000Y-112193012D01*
X103120000Y-113090633D01*
X103333483Y-113033433D01*
X103333492Y-113033429D01*
X103547578Y-112933600D01*
X103741082Y-112798105D01*
X103908105Y-112631082D01*
X104038425Y-112444968D01*
X104093002Y-112401344D01*
X104162501Y-112394151D01*
X104224855Y-112425673D01*
X104241575Y-112444968D01*
X104371894Y-112631082D01*
X104538917Y-112798105D01*
X104732421Y-112933600D01*
X104946507Y-113033429D01*
X104946516Y-113033433D01*
X105160000Y-113090634D01*
X105160000Y-112193012D01*
X105217007Y-112225925D01*
X105344174Y-112260000D01*
X105475826Y-112260000D01*
X105602993Y-112225925D01*
X105660000Y-112193012D01*
X105660000Y-113090633D01*
X105873483Y-113033433D01*
X105873492Y-113033429D01*
X106087578Y-112933600D01*
X106281082Y-112798105D01*
X106448105Y-112631082D01*
X106578425Y-112444968D01*
X106633002Y-112401344D01*
X106702501Y-112394151D01*
X106764855Y-112425673D01*
X106781575Y-112444968D01*
X106911894Y-112631082D01*
X107078917Y-112798105D01*
X107272421Y-112933600D01*
X107486507Y-113033429D01*
X107486516Y-113033433D01*
X107700000Y-113090634D01*
X107700000Y-112193012D01*
X107757007Y-112225925D01*
X107884174Y-112260000D01*
X108015826Y-112260000D01*
X108142993Y-112225925D01*
X108200000Y-112193012D01*
X108200000Y-113090634D01*
X108413483Y-113033433D01*
X108413492Y-113033429D01*
X108627578Y-112933600D01*
X108821082Y-112798105D01*
X108988105Y-112631082D01*
X109118425Y-112444968D01*
X109173002Y-112401344D01*
X109242501Y-112394151D01*
X109304855Y-112425673D01*
X109321575Y-112444968D01*
X109451894Y-112631082D01*
X109618917Y-112798105D01*
X109812421Y-112933600D01*
X110026507Y-113033429D01*
X110026516Y-113033433D01*
X110240000Y-113090634D01*
X110240000Y-112193012D01*
X110297007Y-112225925D01*
X110424174Y-112260000D01*
X110555826Y-112260000D01*
X110682993Y-112225925D01*
X110740000Y-112193012D01*
X110740000Y-113090634D01*
X110953483Y-113033433D01*
X110953492Y-113033429D01*
X111167578Y-112933600D01*
X111361082Y-112798105D01*
X111528105Y-112631082D01*
X111658425Y-112444968D01*
X111713002Y-112401344D01*
X111782501Y-112394151D01*
X111844855Y-112425673D01*
X111861575Y-112444968D01*
X111991894Y-112631082D01*
X112158917Y-112798105D01*
X112352421Y-112933600D01*
X112566507Y-113033429D01*
X112566516Y-113033433D01*
X112780000Y-113090634D01*
X112780000Y-112193012D01*
X112837007Y-112225925D01*
X112964174Y-112260000D01*
X113095826Y-112260000D01*
X113222993Y-112225925D01*
X113280000Y-112193012D01*
X113280000Y-113090634D01*
X113493483Y-113033433D01*
X113493492Y-113033429D01*
X113707578Y-112933600D01*
X113901082Y-112798105D01*
X114068105Y-112631082D01*
X114198425Y-112444968D01*
X114253002Y-112401344D01*
X114322501Y-112394151D01*
X114384855Y-112425673D01*
X114401575Y-112444968D01*
X114531894Y-112631082D01*
X114698917Y-112798105D01*
X114892421Y-112933600D01*
X115106507Y-113033429D01*
X115106516Y-113033433D01*
X115320000Y-113090634D01*
X115320000Y-112193012D01*
X115377007Y-112225925D01*
X115504174Y-112260000D01*
X115635826Y-112260000D01*
X115762993Y-112225925D01*
X115820000Y-112193012D01*
X115820000Y-113090634D01*
X116033483Y-113033433D01*
X116033492Y-113033429D01*
X116247578Y-112933600D01*
X116441082Y-112798105D01*
X116608105Y-112631082D01*
X116738425Y-112444968D01*
X116793002Y-112401344D01*
X116862501Y-112394151D01*
X116924855Y-112425673D01*
X116941575Y-112444968D01*
X117071894Y-112631082D01*
X117238917Y-112798105D01*
X117432421Y-112933600D01*
X117646507Y-113033429D01*
X117646516Y-113033433D01*
X117860000Y-113090634D01*
X117860000Y-112193012D01*
X117917007Y-112225925D01*
X118044174Y-112260000D01*
X118175826Y-112260000D01*
X118302993Y-112225925D01*
X118360000Y-112193012D01*
X118360000Y-113090634D01*
X118573483Y-113033433D01*
X118573492Y-113033429D01*
X118787578Y-112933600D01*
X118981082Y-112798105D01*
X119148105Y-112631082D01*
X119278425Y-112444968D01*
X119333002Y-112401344D01*
X119402501Y-112394151D01*
X119464855Y-112425673D01*
X119481575Y-112444968D01*
X119611894Y-112631082D01*
X119778917Y-112798105D01*
X119972421Y-112933600D01*
X120186507Y-113033429D01*
X120186516Y-113033433D01*
X120400000Y-113090634D01*
X120400000Y-112193012D01*
X120457007Y-112225925D01*
X120584174Y-112260000D01*
X120715826Y-112260000D01*
X120842993Y-112225925D01*
X120900000Y-112193012D01*
X120900000Y-113090633D01*
X121113483Y-113033433D01*
X121113492Y-113033429D01*
X121327578Y-112933600D01*
X121521082Y-112798105D01*
X121688105Y-112631082D01*
X121818425Y-112444968D01*
X121873002Y-112401344D01*
X121942501Y-112394151D01*
X122004855Y-112425673D01*
X122021575Y-112444968D01*
X122151894Y-112631082D01*
X122318917Y-112798105D01*
X122512421Y-112933600D01*
X122726507Y-113033429D01*
X122726516Y-113033433D01*
X122940000Y-113090634D01*
X122940000Y-112193012D01*
X122997007Y-112225925D01*
X123124174Y-112260000D01*
X123255826Y-112260000D01*
X123382993Y-112225925D01*
X123440000Y-112193012D01*
X123440000Y-113090633D01*
X123653483Y-113033433D01*
X123653492Y-113033429D01*
X123867578Y-112933600D01*
X124061082Y-112798105D01*
X124228105Y-112631082D01*
X124358425Y-112444968D01*
X124413002Y-112401344D01*
X124482501Y-112394151D01*
X124544855Y-112425673D01*
X124561575Y-112444968D01*
X124691894Y-112631082D01*
X124858917Y-112798105D01*
X125052421Y-112933600D01*
X125266507Y-113033429D01*
X125266516Y-113033433D01*
X125480000Y-113090634D01*
X125480000Y-112193012D01*
X125537007Y-112225925D01*
X125664174Y-112260000D01*
X125795826Y-112260000D01*
X125922993Y-112225925D01*
X125980000Y-112193012D01*
X125980000Y-113090633D01*
X126193483Y-113033433D01*
X126193492Y-113033429D01*
X126407578Y-112933600D01*
X126601082Y-112798105D01*
X126768105Y-112631082D01*
X126898425Y-112444968D01*
X126953002Y-112401344D01*
X127022501Y-112394151D01*
X127084855Y-112425673D01*
X127101575Y-112444968D01*
X127231894Y-112631082D01*
X127398917Y-112798105D01*
X127592421Y-112933600D01*
X127806507Y-113033429D01*
X127806516Y-113033433D01*
X128020000Y-113090634D01*
X128020000Y-112193012D01*
X128077007Y-112225925D01*
X128204174Y-112260000D01*
X128335826Y-112260000D01*
X128462993Y-112225925D01*
X128520000Y-112193012D01*
X128520000Y-113090633D01*
X128733483Y-113033433D01*
X128733492Y-113033429D01*
X128947578Y-112933600D01*
X129141082Y-112798105D01*
X129308105Y-112631082D01*
X129438425Y-112444968D01*
X129493002Y-112401344D01*
X129562501Y-112394151D01*
X129624855Y-112425673D01*
X129641575Y-112444968D01*
X129771894Y-112631082D01*
X129938917Y-112798105D01*
X130132421Y-112933600D01*
X130346507Y-113033429D01*
X130346516Y-113033433D01*
X130560000Y-113090634D01*
X130560000Y-112193012D01*
X130617007Y-112225925D01*
X130744174Y-112260000D01*
X130875826Y-112260000D01*
X131002993Y-112225925D01*
X131060000Y-112193012D01*
X131060000Y-113090633D01*
X131273483Y-113033433D01*
X131273492Y-113033429D01*
X131487578Y-112933600D01*
X131681082Y-112798105D01*
X131848105Y-112631082D01*
X131978425Y-112444968D01*
X132033002Y-112401344D01*
X132102501Y-112394151D01*
X132164855Y-112425673D01*
X132181575Y-112444968D01*
X132311894Y-112631082D01*
X132478917Y-112798105D01*
X132672421Y-112933600D01*
X132886507Y-113033429D01*
X132886516Y-113033433D01*
X133100000Y-113090634D01*
X133100000Y-112193012D01*
X133157007Y-112225925D01*
X133284174Y-112260000D01*
X133415826Y-112260000D01*
X133542993Y-112225925D01*
X133600000Y-112193012D01*
X133600000Y-113090633D01*
X133813483Y-113033433D01*
X133813492Y-113033429D01*
X134027578Y-112933600D01*
X134221082Y-112798105D01*
X134388105Y-112631082D01*
X134523600Y-112437578D01*
X134623429Y-112223492D01*
X134623432Y-112223486D01*
X134680636Y-112010000D01*
X133783012Y-112010000D01*
X133815925Y-111952993D01*
X133850000Y-111825826D01*
X133850000Y-111694174D01*
X133815925Y-111567007D01*
X133783012Y-111510000D01*
X134680636Y-111510000D01*
X134680635Y-111509999D01*
X134623432Y-111296513D01*
X134623429Y-111296507D01*
X134523600Y-111082422D01*
X134523599Y-111082420D01*
X134388113Y-110888926D01*
X134388108Y-110888920D01*
X134221078Y-110721890D01*
X134035405Y-110591879D01*
X133991780Y-110537302D01*
X133984588Y-110467804D01*
X134016110Y-110405449D01*
X134035406Y-110388730D01*
X134166400Y-110297007D01*
X134221401Y-110258495D01*
X134388495Y-110091401D01*
X134524035Y-109897830D01*
X134623903Y-109683663D01*
X134685063Y-109455408D01*
X134705659Y-109220000D01*
X134685063Y-108984592D01*
X134623903Y-108756337D01*
X134524035Y-108542171D01*
X134518425Y-108534158D01*
X134388494Y-108348597D01*
X134221402Y-108181506D01*
X134221395Y-108181501D01*
X134027834Y-108045967D01*
X134027830Y-108045965D01*
X134027828Y-108045964D01*
X133813663Y-107946097D01*
X133813659Y-107946096D01*
X133813655Y-107946094D01*
X133585413Y-107884938D01*
X133585403Y-107884936D01*
X133350001Y-107864341D01*
X133349999Y-107864341D01*
X133114596Y-107884936D01*
X133114586Y-107884938D01*
X132886344Y-107946094D01*
X132886335Y-107946098D01*
X132672171Y-108045964D01*
X132672169Y-108045965D01*
X132478597Y-108181505D01*
X132311505Y-108348597D01*
X132181575Y-108534158D01*
X132126998Y-108577783D01*
X132057500Y-108584977D01*
X131995145Y-108553454D01*
X131978425Y-108534158D01*
X131848494Y-108348597D01*
X131681402Y-108181506D01*
X131681395Y-108181501D01*
X131487834Y-108045967D01*
X131487830Y-108045965D01*
X131273665Y-107946097D01*
X131249460Y-107939611D01*
X131242205Y-107937427D01*
X129968972Y-107511318D01*
X129920644Y-107481409D01*
X127868590Y-105429355D01*
X127868588Y-105429352D01*
X127749717Y-105310481D01*
X127749712Y-105310477D01*
X127637385Y-105245626D01*
X127612785Y-105231423D01*
X127460057Y-105190499D01*
X127301943Y-105190499D01*
X127294347Y-105190499D01*
X127294331Y-105190500D01*
X126463097Y-105190500D01*
X126396058Y-105170815D01*
X126350303Y-105118011D01*
X126340359Y-105048853D01*
X126369384Y-104985297D01*
X126375416Y-104978819D01*
X126497276Y-104856958D01*
X126977506Y-104376727D01*
X126977511Y-104376724D01*
X126987714Y-104366520D01*
X126987716Y-104366520D01*
X127099520Y-104254716D01*
X127165751Y-104140000D01*
X127178577Y-104117785D01*
X127219501Y-103965057D01*
X127219501Y-103806943D01*
X127219501Y-103799348D01*
X127219500Y-103799330D01*
X127219500Y-100377944D01*
X127219499Y-100377940D01*
X127216587Y-100367071D01*
X127211295Y-100347319D01*
X127178577Y-100225215D01*
X127123075Y-100129083D01*
X127099520Y-100088284D01*
X126987716Y-99976480D01*
X126987715Y-99976479D01*
X126983385Y-99972149D01*
X126983374Y-99972139D01*
X125836590Y-98825355D01*
X125836588Y-98825352D01*
X125717717Y-98706481D01*
X125717716Y-98706480D01*
X125630904Y-98656360D01*
X125630904Y-98656359D01*
X125630900Y-98656358D01*
X125580785Y-98627423D01*
X125428057Y-98586499D01*
X125269943Y-98586499D01*
X125262347Y-98586499D01*
X125262331Y-98586500D01*
X86788940Y-98586500D01*
X86748019Y-98597464D01*
X86748019Y-98597465D01*
X86710751Y-98607451D01*
X86636214Y-98627423D01*
X86636209Y-98627426D01*
X86499290Y-98706475D01*
X86499282Y-98706481D01*
X86387478Y-98818286D01*
X85344354Y-99861409D01*
X85296026Y-99891318D01*
X84022779Y-100317432D01*
X84015532Y-100319613D01*
X83991337Y-100326097D01*
X83991335Y-100326098D01*
X83981881Y-100330506D01*
X83970933Y-100334987D01*
X83964173Y-100337384D01*
X83963430Y-100337662D01*
X83963418Y-100337668D01*
X83899081Y-100367069D01*
X83893406Y-100370434D01*
X83893228Y-100370133D01*
X83880226Y-100377907D01*
X83777176Y-100425961D01*
X83777169Y-100425965D01*
X83583597Y-100561505D01*
X83416505Y-100728597D01*
X83280965Y-100922169D01*
X83280964Y-100922171D01*
X83181098Y-101136335D01*
X83181094Y-101136344D01*
X83119938Y-101364586D01*
X83119936Y-101364596D01*
X83099341Y-101599999D01*
X83099341Y-101600000D01*
X83119936Y-101835403D01*
X83119938Y-101835413D01*
X83181094Y-102063655D01*
X83181096Y-102063659D01*
X83181097Y-102063663D01*
X83206524Y-102118191D01*
X83280965Y-102277830D01*
X83280967Y-102277834D01*
X83383858Y-102424777D01*
X83416505Y-102471401D01*
X83583599Y-102638495D01*
X83680384Y-102706265D01*
X83777165Y-102774032D01*
X83777167Y-102774033D01*
X83777170Y-102774035D01*
X83991337Y-102873903D01*
X83991343Y-102873904D01*
X83991344Y-102873905D01*
X84030360Y-102884359D01*
X84219592Y-102935063D01*
X84396034Y-102950500D01*
X84454999Y-102955659D01*
X84455000Y-102955659D01*
X84455001Y-102955659D01*
X84513966Y-102950500D01*
X84690408Y-102935063D01*
X84918663Y-102873903D01*
X85132830Y-102774035D01*
X85326401Y-102638495D01*
X85448329Y-102516566D01*
X85509648Y-102483084D01*
X85579340Y-102488068D01*
X85635274Y-102529939D01*
X85652189Y-102560917D01*
X85701202Y-102692328D01*
X85701206Y-102692335D01*
X85787452Y-102807544D01*
X85787455Y-102807547D01*
X85902664Y-102893793D01*
X85902671Y-102893797D01*
X86037517Y-102944091D01*
X86037516Y-102944091D01*
X86044444Y-102944835D01*
X86097127Y-102950500D01*
X87892872Y-102950499D01*
X87952483Y-102944091D01*
X88087331Y-102893796D01*
X88202546Y-102807546D01*
X88288796Y-102692331D01*
X88339091Y-102557483D01*
X88345500Y-102497873D01*
X88345499Y-102082749D01*
X88353886Y-102037921D01*
X88404649Y-101907007D01*
X88944567Y-100514583D01*
X88972494Y-100471739D01*
X89220417Y-100223816D01*
X89281739Y-100190334D01*
X89308097Y-100187500D01*
X94651770Y-100187500D01*
X94718809Y-100207185D01*
X94764564Y-100259989D01*
X94774508Y-100329147D01*
X94745483Y-100392703D01*
X94739451Y-100399181D01*
X86716622Y-108422008D01*
X86682442Y-108446192D01*
X86033943Y-108756344D01*
X85258170Y-109127365D01*
X85204671Y-109139500D01*
X84812129Y-109139500D01*
X84812123Y-109139501D01*
X84752516Y-109145908D01*
X84617671Y-109196202D01*
X84617664Y-109196206D01*
X84502455Y-109282452D01*
X84502452Y-109282455D01*
X84416206Y-109397664D01*
X84416202Y-109397671D01*
X84366997Y-109529598D01*
X84325126Y-109585532D01*
X84259661Y-109609949D01*
X84191388Y-109595097D01*
X84163134Y-109573946D01*
X84041082Y-109451894D01*
X83847578Y-109316399D01*
X83633492Y-109216570D01*
X83633486Y-109216567D01*
X83420000Y-109159364D01*
X83420000Y-110056988D01*
X83362993Y-110024075D01*
X83235826Y-109990000D01*
X83104174Y-109990000D01*
X82977007Y-110024075D01*
X82920000Y-110056988D01*
X82920000Y-109159364D01*
X82919999Y-109159364D01*
X82706513Y-109216567D01*
X82706507Y-109216570D01*
X82492422Y-109316399D01*
X82492420Y-109316400D01*
X82298926Y-109451886D01*
X82298920Y-109451891D01*
X82131891Y-109618920D01*
X82131890Y-109618922D01*
X82001575Y-109805031D01*
X81946998Y-109848655D01*
X81877499Y-109855848D01*
X81815145Y-109824326D01*
X81798425Y-109805031D01*
X81668109Y-109618922D01*
X81668108Y-109618920D01*
X81501082Y-109451894D01*
X81307578Y-109316399D01*
X81093492Y-109216570D01*
X81093486Y-109216567D01*
X80880000Y-109159364D01*
X80880000Y-110056988D01*
X80822993Y-110024075D01*
X80695826Y-109990000D01*
X80564174Y-109990000D01*
X80437007Y-110024075D01*
X80380000Y-110056988D01*
X80380000Y-109159364D01*
X80379999Y-109159364D01*
X80166513Y-109216567D01*
X80166507Y-109216570D01*
X79952422Y-109316399D01*
X79952420Y-109316400D01*
X79758926Y-109451886D01*
X79758920Y-109451891D01*
X79591891Y-109618920D01*
X79591890Y-109618922D01*
X79461880Y-109804595D01*
X79407303Y-109848219D01*
X79337804Y-109855412D01*
X79275450Y-109823890D01*
X79258730Y-109804594D01*
X79128494Y-109618597D01*
X78961402Y-109451506D01*
X78961395Y-109451501D01*
X78767834Y-109315967D01*
X78767830Y-109315965D01*
X78767828Y-109315964D01*
X78553663Y-109216097D01*
X78553659Y-109216096D01*
X78553655Y-109216094D01*
X78325413Y-109154938D01*
X78325403Y-109154936D01*
X78090001Y-109134341D01*
X78089999Y-109134341D01*
X77854596Y-109154936D01*
X77854586Y-109154938D01*
X77626344Y-109216094D01*
X77626335Y-109216098D01*
X77412171Y-109315964D01*
X77412169Y-109315965D01*
X77218597Y-109451505D01*
X77051505Y-109618597D01*
X76926075Y-109797731D01*
X76871498Y-109841356D01*
X76802000Y-109848549D01*
X76739645Y-109817027D01*
X76704231Y-109756797D01*
X76700500Y-109726608D01*
X76700500Y-98796961D01*
X76701280Y-98783077D01*
X76701280Y-98783076D01*
X76711459Y-98692731D01*
X76717635Y-98665670D01*
X76745353Y-98586456D01*
X76757396Y-98561450D01*
X76802046Y-98490389D01*
X76819351Y-98468690D01*
X76878690Y-98409351D01*
X76900389Y-98392046D01*
X76971450Y-98347396D01*
X76996456Y-98335353D01*
X77075670Y-98307635D01*
X77102733Y-98301459D01*
X77165419Y-98294396D01*
X77193079Y-98291280D01*
X77206962Y-98290500D01*
X77265892Y-98290500D01*
X134570108Y-98290500D01*
X134629038Y-98290500D01*
X134642922Y-98291280D01*
G37*
%TD.AperFunction*%
%TA.AperFunction,Conductor*%
G36*
X94784075Y-111567007D02*
G01*
X94750000Y-111694174D01*
X94750000Y-111825826D01*
X94784075Y-111952993D01*
X94816988Y-112010000D01*
X93143012Y-112010000D01*
X93175925Y-111952993D01*
X93210000Y-111825826D01*
X93210000Y-111694174D01*
X93175925Y-111567007D01*
X93143012Y-111510000D01*
X94816988Y-111510000D01*
X94784075Y-111567007D01*
G37*
%TD.AperFunction*%
%TA.AperFunction,Conductor*%
G36*
X97324075Y-111567007D02*
G01*
X97290000Y-111694174D01*
X97290000Y-111825826D01*
X97324075Y-111952993D01*
X97356988Y-112010000D01*
X95683012Y-112010000D01*
X95715925Y-111952993D01*
X95750000Y-111825826D01*
X95750000Y-111694174D01*
X95715925Y-111567007D01*
X95683012Y-111510000D01*
X97356988Y-111510000D01*
X97324075Y-111567007D01*
G37*
%TD.AperFunction*%
%TA.AperFunction,Conductor*%
G36*
X99864075Y-111567007D02*
G01*
X99830000Y-111694174D01*
X99830000Y-111825826D01*
X99864075Y-111952993D01*
X99896988Y-112010000D01*
X98223012Y-112010000D01*
X98255925Y-111952993D01*
X98290000Y-111825826D01*
X98290000Y-111694174D01*
X98255925Y-111567007D01*
X98223012Y-111510000D01*
X99896988Y-111510000D01*
X99864075Y-111567007D01*
G37*
%TD.AperFunction*%
%TA.AperFunction,Conductor*%
G36*
X102404075Y-111567007D02*
G01*
X102370000Y-111694174D01*
X102370000Y-111825826D01*
X102404075Y-111952993D01*
X102436988Y-112010000D01*
X100763012Y-112010000D01*
X100795925Y-111952993D01*
X100830000Y-111825826D01*
X100830000Y-111694174D01*
X100795925Y-111567007D01*
X100763012Y-111510000D01*
X102436988Y-111510000D01*
X102404075Y-111567007D01*
G37*
%TD.AperFunction*%
%TA.AperFunction,Conductor*%
G36*
X104944075Y-111567007D02*
G01*
X104910000Y-111694174D01*
X104910000Y-111825826D01*
X104944075Y-111952993D01*
X104976988Y-112010000D01*
X103303012Y-112010000D01*
X103335925Y-111952993D01*
X103370000Y-111825826D01*
X103370000Y-111694174D01*
X103335925Y-111567007D01*
X103303012Y-111510000D01*
X104976988Y-111510000D01*
X104944075Y-111567007D01*
G37*
%TD.AperFunction*%
%TA.AperFunction,Conductor*%
G36*
X107484075Y-111567007D02*
G01*
X107450000Y-111694174D01*
X107450000Y-111825826D01*
X107484075Y-111952993D01*
X107516988Y-112010000D01*
X105843012Y-112010000D01*
X105875925Y-111952993D01*
X105910000Y-111825826D01*
X105910000Y-111694174D01*
X105875925Y-111567007D01*
X105843012Y-111510000D01*
X107516988Y-111510000D01*
X107484075Y-111567007D01*
G37*
%TD.AperFunction*%
%TA.AperFunction,Conductor*%
G36*
X110024075Y-111567007D02*
G01*
X109990000Y-111694174D01*
X109990000Y-111825826D01*
X110024075Y-111952993D01*
X110056988Y-112010000D01*
X108383012Y-112010000D01*
X108415925Y-111952993D01*
X108450000Y-111825826D01*
X108450000Y-111694174D01*
X108415925Y-111567007D01*
X108383012Y-111510000D01*
X110056988Y-111510000D01*
X110024075Y-111567007D01*
G37*
%TD.AperFunction*%
%TA.AperFunction,Conductor*%
G36*
X112564075Y-111567007D02*
G01*
X112530000Y-111694174D01*
X112530000Y-111825826D01*
X112564075Y-111952993D01*
X112596988Y-112010000D01*
X110923012Y-112010000D01*
X110955925Y-111952993D01*
X110990000Y-111825826D01*
X110990000Y-111694174D01*
X110955925Y-111567007D01*
X110923012Y-111510000D01*
X112596988Y-111510000D01*
X112564075Y-111567007D01*
G37*
%TD.AperFunction*%
%TA.AperFunction,Conductor*%
G36*
X115104075Y-111567007D02*
G01*
X115070000Y-111694174D01*
X115070000Y-111825826D01*
X115104075Y-111952993D01*
X115136988Y-112010000D01*
X113463012Y-112010000D01*
X113495925Y-111952993D01*
X113530000Y-111825826D01*
X113530000Y-111694174D01*
X113495925Y-111567007D01*
X113463012Y-111510000D01*
X115136988Y-111510000D01*
X115104075Y-111567007D01*
G37*
%TD.AperFunction*%
%TA.AperFunction,Conductor*%
G36*
X117644075Y-111567007D02*
G01*
X117610000Y-111694174D01*
X117610000Y-111825826D01*
X117644075Y-111952993D01*
X117676988Y-112010000D01*
X116003012Y-112010000D01*
X116035925Y-111952993D01*
X116070000Y-111825826D01*
X116070000Y-111694174D01*
X116035925Y-111567007D01*
X116003012Y-111510000D01*
X117676988Y-111510000D01*
X117644075Y-111567007D01*
G37*
%TD.AperFunction*%
%TA.AperFunction,Conductor*%
G36*
X120184075Y-111567007D02*
G01*
X120150000Y-111694174D01*
X120150000Y-111825826D01*
X120184075Y-111952993D01*
X120216988Y-112010000D01*
X118543012Y-112010000D01*
X118575925Y-111952993D01*
X118610000Y-111825826D01*
X118610000Y-111694174D01*
X118575925Y-111567007D01*
X118543012Y-111510000D01*
X120216988Y-111510000D01*
X120184075Y-111567007D01*
G37*
%TD.AperFunction*%
%TA.AperFunction,Conductor*%
G36*
X122724075Y-111567007D02*
G01*
X122690000Y-111694174D01*
X122690000Y-111825826D01*
X122724075Y-111952993D01*
X122756988Y-112010000D01*
X121083012Y-112010000D01*
X121115925Y-111952993D01*
X121150000Y-111825826D01*
X121150000Y-111694174D01*
X121115925Y-111567007D01*
X121083012Y-111510000D01*
X122756988Y-111510000D01*
X122724075Y-111567007D01*
G37*
%TD.AperFunction*%
%TA.AperFunction,Conductor*%
G36*
X125264075Y-111567007D02*
G01*
X125230000Y-111694174D01*
X125230000Y-111825826D01*
X125264075Y-111952993D01*
X125296988Y-112010000D01*
X123623012Y-112010000D01*
X123655925Y-111952993D01*
X123690000Y-111825826D01*
X123690000Y-111694174D01*
X123655925Y-111567007D01*
X123623012Y-111510000D01*
X125296988Y-111510000D01*
X125264075Y-111567007D01*
G37*
%TD.AperFunction*%
%TA.AperFunction,Conductor*%
G36*
X127804075Y-111567007D02*
G01*
X127770000Y-111694174D01*
X127770000Y-111825826D01*
X127804075Y-111952993D01*
X127836988Y-112010000D01*
X126163012Y-112010000D01*
X126195925Y-111952993D01*
X126230000Y-111825826D01*
X126230000Y-111694174D01*
X126195925Y-111567007D01*
X126163012Y-111510000D01*
X127836988Y-111510000D01*
X127804075Y-111567007D01*
G37*
%TD.AperFunction*%
%TA.AperFunction,Conductor*%
G36*
X130344075Y-111567007D02*
G01*
X130310000Y-111694174D01*
X130310000Y-111825826D01*
X130344075Y-111952993D01*
X130376988Y-112010000D01*
X128703012Y-112010000D01*
X128735925Y-111952993D01*
X128770000Y-111825826D01*
X128770000Y-111694174D01*
X128735925Y-111567007D01*
X128703012Y-111510000D01*
X130376988Y-111510000D01*
X130344075Y-111567007D01*
G37*
%TD.AperFunction*%
%TA.AperFunction,Conductor*%
G36*
X132884075Y-111567007D02*
G01*
X132850000Y-111694174D01*
X132850000Y-111825826D01*
X132884075Y-111952993D01*
X132916988Y-112010000D01*
X131243012Y-112010000D01*
X131275925Y-111952993D01*
X131310000Y-111825826D01*
X131310000Y-111694174D01*
X131275925Y-111567007D01*
X131243012Y-111510000D01*
X132916988Y-111510000D01*
X132884075Y-111567007D01*
G37*
%TD.AperFunction*%
%TA.AperFunction,Conductor*%
G36*
X82704075Y-110297007D02*
G01*
X82670000Y-110424174D01*
X82670000Y-110555826D01*
X82704075Y-110682993D01*
X82736988Y-110740000D01*
X81063012Y-110740000D01*
X81095925Y-110682993D01*
X81130000Y-110555826D01*
X81130000Y-110424174D01*
X81095925Y-110297007D01*
X81063012Y-110240000D01*
X82736988Y-110240000D01*
X82704075Y-110297007D01*
G37*
%TD.AperFunction*%
%TA.AperFunction,Conductor*%
G36*
X116374075Y-101792993D02*
G01*
X116439901Y-101907007D01*
X116532993Y-102000099D01*
X116647007Y-102065925D01*
X116710590Y-102082962D01*
X116078625Y-102714925D01*
X116154594Y-102768119D01*
X116198219Y-102822696D01*
X116205413Y-102892194D01*
X116173890Y-102954549D01*
X116154595Y-102971269D01*
X115968594Y-103101508D01*
X115801505Y-103268597D01*
X115671575Y-103454158D01*
X115616998Y-103497783D01*
X115547500Y-103504977D01*
X115485145Y-103473454D01*
X115468425Y-103454158D01*
X115338494Y-103268597D01*
X115171402Y-103101506D01*
X115171396Y-103101501D01*
X114985842Y-102971575D01*
X114942217Y-102916998D01*
X114935023Y-102847500D01*
X114966546Y-102785145D01*
X114985842Y-102768425D01*
X115062248Y-102714925D01*
X115171401Y-102638495D01*
X115338495Y-102471401D01*
X115468732Y-102285403D01*
X115523307Y-102241780D01*
X115592805Y-102234586D01*
X115655160Y-102266109D01*
X115671880Y-102285405D01*
X115725073Y-102361373D01*
X116357037Y-101729409D01*
X116374075Y-101792993D01*
G37*
%TD.AperFunction*%
%TA.AperFunction,Conductor*%
G36*
X118914075Y-101792993D02*
G01*
X118979901Y-101907007D01*
X119072993Y-102000099D01*
X119187007Y-102065925D01*
X119250590Y-102082962D01*
X118618625Y-102714925D01*
X118694594Y-102768119D01*
X118738219Y-102822696D01*
X118745413Y-102892194D01*
X118713890Y-102954549D01*
X118694595Y-102971269D01*
X118508594Y-103101508D01*
X118341505Y-103268597D01*
X118211575Y-103454158D01*
X118156998Y-103497783D01*
X118087500Y-103504977D01*
X118025145Y-103473454D01*
X118008425Y-103454158D01*
X117878494Y-103268597D01*
X117711402Y-103101506D01*
X117711401Y-103101505D01*
X117525405Y-102971269D01*
X117481781Y-102916692D01*
X117474588Y-102847193D01*
X117506110Y-102784839D01*
X117525405Y-102768119D01*
X117601373Y-102714925D01*
X116969409Y-102082962D01*
X117032993Y-102065925D01*
X117147007Y-102000099D01*
X117240099Y-101907007D01*
X117305925Y-101792993D01*
X117322962Y-101729410D01*
X117954925Y-102361373D01*
X118008425Y-102284968D01*
X118063002Y-102241344D01*
X118132501Y-102234151D01*
X118194855Y-102265673D01*
X118211576Y-102284969D01*
X118265073Y-102361372D01*
X118897037Y-101729409D01*
X118914075Y-101792993D01*
G37*
%TD.AperFunction*%
%TA.AperFunction,Conductor*%
G36*
X121454075Y-101792993D02*
G01*
X121519901Y-101907007D01*
X121612993Y-102000099D01*
X121727007Y-102065925D01*
X121790590Y-102082962D01*
X121158625Y-102714925D01*
X121234594Y-102768119D01*
X121278219Y-102822696D01*
X121285413Y-102892194D01*
X121253890Y-102954549D01*
X121234595Y-102971269D01*
X121048594Y-103101508D01*
X120881505Y-103268597D01*
X120751575Y-103454158D01*
X120696998Y-103497783D01*
X120627500Y-103504977D01*
X120565145Y-103473454D01*
X120548425Y-103454158D01*
X120418494Y-103268597D01*
X120251402Y-103101506D01*
X120251401Y-103101505D01*
X120065405Y-102971269D01*
X120021781Y-102916692D01*
X120014588Y-102847193D01*
X120046110Y-102784839D01*
X120065405Y-102768119D01*
X120141373Y-102714925D01*
X119509409Y-102082962D01*
X119572993Y-102065925D01*
X119687007Y-102000099D01*
X119780099Y-101907007D01*
X119845925Y-101792993D01*
X119862962Y-101729410D01*
X120494925Y-102361373D01*
X120548425Y-102284968D01*
X120603002Y-102241344D01*
X120672501Y-102234151D01*
X120734855Y-102265673D01*
X120751576Y-102284969D01*
X120805073Y-102361372D01*
X121437037Y-101729409D01*
X121454075Y-101792993D01*
G37*
%TD.AperFunction*%
%TA.AperFunction,Conductor*%
G36*
X123039156Y-102365604D02*
G01*
X123091701Y-102376163D01*
X123141885Y-102424777D01*
X123151717Y-102446921D01*
X123175642Y-102519121D01*
X123175643Y-102519124D01*
X123267684Y-102668345D01*
X123391654Y-102792315D01*
X123540875Y-102884356D01*
X123540882Y-102884359D01*
X123549712Y-102887285D01*
X123607157Y-102927057D01*
X123633981Y-102991572D01*
X123621667Y-103060348D01*
X123592318Y-103097567D01*
X123592427Y-103097676D01*
X123591511Y-103098591D01*
X123590419Y-103099977D01*
X123588597Y-103101505D01*
X123421505Y-103268597D01*
X123291575Y-103454158D01*
X123236998Y-103497783D01*
X123167500Y-103504977D01*
X123105145Y-103473454D01*
X123088425Y-103454158D01*
X122958494Y-103268597D01*
X122791402Y-103101506D01*
X122791401Y-103101505D01*
X122605405Y-102971269D01*
X122561781Y-102916692D01*
X122554588Y-102847193D01*
X122586110Y-102784839D01*
X122605405Y-102768119D01*
X122681373Y-102714925D01*
X122049409Y-102082962D01*
X122112993Y-102065925D01*
X122227007Y-102000099D01*
X122320099Y-101907007D01*
X122385925Y-101792993D01*
X122402962Y-101729410D01*
X123039156Y-102365604D01*
G37*
%TD.AperFunction*%
%TA.AperFunction,Conductor*%
G36*
X116182456Y-100207185D02*
G01*
X116228211Y-100259989D01*
X116238155Y-100329147D01*
X116209130Y-100392703D01*
X116167824Y-100423881D01*
X116162419Y-100426401D01*
X116078625Y-100485072D01*
X116710590Y-101117037D01*
X116647007Y-101134075D01*
X116532993Y-101199901D01*
X116439901Y-101292993D01*
X116374075Y-101407007D01*
X116357037Y-101470590D01*
X115725073Y-100838626D01*
X115671881Y-100914594D01*
X115617304Y-100958219D01*
X115547806Y-100965413D01*
X115485451Y-100933891D01*
X115468730Y-100914594D01*
X115338494Y-100728597D01*
X115171402Y-100561506D01*
X115171395Y-100561501D01*
X114977834Y-100425967D01*
X114977831Y-100425966D01*
X114977832Y-100425966D01*
X114977830Y-100425965D01*
X114973362Y-100423881D01*
X114920924Y-100377711D01*
X114901771Y-100310518D01*
X114921986Y-100243637D01*
X114975150Y-100198301D01*
X115025767Y-100187500D01*
X116115417Y-100187500D01*
X116182456Y-100207185D01*
G37*
%TD.AperFunction*%
%TA.AperFunction,Conductor*%
G36*
X118722456Y-100207185D02*
G01*
X118768211Y-100259989D01*
X118778155Y-100329147D01*
X118749130Y-100392703D01*
X118707824Y-100423881D01*
X118702419Y-100426401D01*
X118618625Y-100485072D01*
X119250590Y-101117037D01*
X119187007Y-101134075D01*
X119072993Y-101199901D01*
X118979901Y-101292993D01*
X118914075Y-101407007D01*
X118897037Y-101470590D01*
X118265072Y-100838625D01*
X118265072Y-100838626D01*
X118211574Y-100915030D01*
X118156998Y-100958655D01*
X118087499Y-100965849D01*
X118025144Y-100934326D01*
X118008424Y-100915030D01*
X117954925Y-100838626D01*
X117954925Y-100838625D01*
X117322962Y-101470589D01*
X117305925Y-101407007D01*
X117240099Y-101292993D01*
X117147007Y-101199901D01*
X117032993Y-101134075D01*
X116969410Y-101117037D01*
X117601373Y-100485073D01*
X117601373Y-100485072D01*
X117517583Y-100426402D01*
X117517577Y-100426399D01*
X117512177Y-100423881D01*
X117459739Y-100377708D01*
X117440588Y-100310514D01*
X117460805Y-100243633D01*
X117513971Y-100198300D01*
X117564584Y-100187500D01*
X118655417Y-100187500D01*
X118722456Y-100207185D01*
G37*
%TD.AperFunction*%
%TA.AperFunction,Conductor*%
G36*
X121262456Y-100207185D02*
G01*
X121308211Y-100259989D01*
X121318155Y-100329147D01*
X121289130Y-100392703D01*
X121247824Y-100423881D01*
X121242419Y-100426401D01*
X121158625Y-100485072D01*
X121790590Y-101117037D01*
X121727007Y-101134075D01*
X121612993Y-101199901D01*
X121519901Y-101292993D01*
X121454075Y-101407007D01*
X121437037Y-101470590D01*
X120805072Y-100838625D01*
X120805072Y-100838626D01*
X120751574Y-100915030D01*
X120696998Y-100958655D01*
X120627499Y-100965849D01*
X120565144Y-100934326D01*
X120548424Y-100915030D01*
X120494925Y-100838626D01*
X120494925Y-100838625D01*
X119862962Y-101470589D01*
X119845925Y-101407007D01*
X119780099Y-101292993D01*
X119687007Y-101199901D01*
X119572993Y-101134075D01*
X119509410Y-101117037D01*
X120141373Y-100485073D01*
X120141373Y-100485072D01*
X120057583Y-100426402D01*
X120057577Y-100426399D01*
X120052177Y-100423881D01*
X119999739Y-100377708D01*
X119980588Y-100310514D01*
X120000805Y-100243633D01*
X120053971Y-100198300D01*
X120104584Y-100187500D01*
X121195417Y-100187500D01*
X121262456Y-100207185D01*
G37*
%TD.AperFunction*%
%TA.AperFunction,Conductor*%
G36*
X123380414Y-100207185D02*
G01*
X123426169Y-100259989D01*
X123436113Y-100329147D01*
X123407088Y-100392703D01*
X123396762Y-100402575D01*
X123396763Y-100402576D01*
X123267684Y-100531654D01*
X123175643Y-100680875D01*
X123175641Y-100680880D01*
X123151718Y-100753076D01*
X123111945Y-100810521D01*
X123047429Y-100837344D01*
X123036087Y-100837463D01*
X122402962Y-101470589D01*
X122385925Y-101407007D01*
X122320099Y-101292993D01*
X122227007Y-101199901D01*
X122112993Y-101134075D01*
X122049410Y-101117037D01*
X122681373Y-100485073D01*
X122681373Y-100485072D01*
X122597583Y-100426402D01*
X122597577Y-100426399D01*
X122592177Y-100423881D01*
X122539739Y-100377708D01*
X122520588Y-100310514D01*
X122540805Y-100243633D01*
X122593971Y-100198300D01*
X122644584Y-100187500D01*
X123313375Y-100187500D01*
X123380414Y-100207185D01*
G37*
%TD.AperFunction*%
%TD*%
%TA.AperFunction,Conductor*%
%TO.N,/PH0-RX*%
G36*
X88377172Y-100081209D02*
G01*
X88380722Y-100083641D01*
X88511358Y-100214277D01*
X88514785Y-100222550D01*
X88513994Y-100226780D01*
X87849323Y-101940932D01*
X87843137Y-101947407D01*
X87834184Y-101947611D01*
X87833947Y-101947516D01*
X86998784Y-101602562D01*
X86992446Y-101596236D01*
X86647483Y-100761052D01*
X86647492Y-100752097D01*
X86653830Y-100745771D01*
X86653996Y-100745704D01*
X88368222Y-100081005D01*
X88377172Y-100081209D01*
G37*
%TD.AperFunction*%
%TD*%
%TA.AperFunction,Conductor*%
%TO.N,/PH0-RX*%
G36*
X125746825Y-103098635D02*
G01*
X125748157Y-103099780D01*
X125879329Y-103230952D01*
X125882756Y-103239225D01*
X125881432Y-103244632D01*
X125250245Y-104455788D01*
X125243382Y-104461541D01*
X125235403Y-104461195D01*
X124466533Y-104143696D01*
X124460194Y-104137371D01*
X124459299Y-104132874D01*
X124459991Y-103300050D01*
X124463425Y-103291782D01*
X124469937Y-103288495D01*
X125738135Y-103096485D01*
X125746825Y-103098635D01*
G37*
%TD.AperFunction*%
%TD*%
%TA.AperFunction,Conductor*%
%TO.N,/PH1-TX*%
G36*
X85588437Y-100330129D02*
G01*
X85591490Y-100332327D01*
X85722672Y-100463509D01*
X85726099Y-100471782D01*
X85725494Y-100475495D01*
X85244275Y-101913396D01*
X85238400Y-101920154D01*
X85229467Y-101920778D01*
X85228714Y-101920497D01*
X84458785Y-101602562D01*
X84452447Y-101596238D01*
X84134502Y-100826284D01*
X84134511Y-100817330D01*
X84140850Y-100811005D01*
X84141581Y-100810731D01*
X85579506Y-100329505D01*
X85588437Y-100330129D01*
G37*
%TD.AperFunction*%
%TD*%
%TA.AperFunction,Conductor*%
%TO.N,/PH1-TX*%
G36*
X122702496Y-103819586D02*
G01*
X122708825Y-103825920D01*
X122709161Y-103826840D01*
X123143102Y-105188265D01*
X123143655Y-105191818D01*
X123143655Y-105374274D01*
X123140228Y-105382547D01*
X123131955Y-105385974D01*
X123128593Y-105385481D01*
X121607108Y-104929014D01*
X121600168Y-104923354D01*
X121599263Y-104914445D01*
X121599652Y-104913350D01*
X121917147Y-104144486D01*
X121923468Y-104138151D01*
X122693542Y-103819582D01*
X122702496Y-103819586D01*
G37*
%TD.AperFunction*%
%TD*%
%TA.AperFunction,Conductor*%
%TO.N,/WR*%
G36*
X116901401Y-107974517D02*
G01*
X118158460Y-108351652D01*
X118422891Y-108430985D01*
X118429831Y-108436645D01*
X118430736Y-108445554D01*
X118430343Y-108446658D01*
X118112853Y-109215511D01*
X118106528Y-109221850D01*
X118106512Y-109221856D01*
X117336458Y-109540417D01*
X117327503Y-109540413D01*
X117321174Y-109534079D01*
X117320838Y-109533159D01*
X117221613Y-109221856D01*
X116974175Y-108445554D01*
X116886898Y-108171734D01*
X116886345Y-108168181D01*
X116886345Y-107985725D01*
X116889772Y-107977452D01*
X116898045Y-107974025D01*
X116901401Y-107974517D01*
G37*
%TD.AperFunction*%
%TD*%
%TA.AperFunction,Conductor*%
%TO.N,/WR*%
G36*
X104732313Y-107720193D02*
G01*
X104738909Y-107726249D01*
X104740000Y-107731183D01*
X104740000Y-107914816D01*
X104736573Y-107923089D01*
X104732313Y-107925806D01*
X104265305Y-108096330D01*
X104256358Y-108095949D01*
X104250496Y-108089851D01*
X104140883Y-107827509D01*
X104140857Y-107818556D01*
X104140862Y-107818542D01*
X104250496Y-107556147D01*
X104256848Y-107549836D01*
X104265302Y-107549669D01*
X104732313Y-107720193D01*
G37*
%TD.AperFunction*%
%TD*%
%TA.AperFunction,Conductor*%
%TO.N,/RD*%
G36*
X106804987Y-105935814D02*
G01*
X106806315Y-105936471D01*
X106816077Y-105942099D01*
X107255844Y-106195624D01*
X107261299Y-106202725D01*
X107261700Y-106205760D01*
X107261700Y-106389272D01*
X107258273Y-106397545D01*
X107252136Y-106400775D01*
X106693788Y-106504439D01*
X106685028Y-106502580D01*
X106680149Y-106495072D01*
X106679953Y-106492988D01*
X106679007Y-106209362D01*
X106679909Y-106204822D01*
X106789682Y-105942096D01*
X106796032Y-105935787D01*
X106804987Y-105935814D01*
G37*
%TD.AperFunction*%
%TD*%
%TA.AperFunction,Conductor*%
%TO.N,/RD*%
G36*
X127145490Y-107949504D02*
G01*
X128583396Y-108430724D01*
X128590154Y-108436599D01*
X128590778Y-108445532D01*
X128590497Y-108446285D01*
X128272562Y-109216214D01*
X128266237Y-109222553D01*
X128266214Y-109222562D01*
X127496285Y-109540497D01*
X127487330Y-109540488D01*
X127481005Y-109534149D01*
X127480724Y-109533396D01*
X127376695Y-109222553D01*
X126999505Y-108095492D01*
X127000129Y-108086562D01*
X127002324Y-108083512D01*
X127133510Y-107952326D01*
X127141782Y-107948900D01*
X127145490Y-107949504D01*
G37*
%TD.AperFunction*%
%TD*%
%TA.AperFunction,Conductor*%
%TO.N,/WRPROT*%
G36*
X102192313Y-106704193D02*
G01*
X102198909Y-106710249D01*
X102200000Y-106715183D01*
X102200000Y-106898816D01*
X102196573Y-106907089D01*
X102192313Y-106909806D01*
X101725305Y-107080330D01*
X101716358Y-107079949D01*
X101710496Y-107073851D01*
X101600883Y-106811509D01*
X101600857Y-106802556D01*
X101600862Y-106802542D01*
X101710496Y-106540147D01*
X101716848Y-106533836D01*
X101725302Y-106533669D01*
X102192313Y-106704193D01*
G37*
%TD.AperFunction*%
%TD*%
%TA.AperFunction,Conductor*%
%TO.N,/WRPROT*%
G36*
X124605490Y-107949504D02*
G01*
X126043396Y-108430724D01*
X126050154Y-108436599D01*
X126050778Y-108445532D01*
X126050497Y-108446285D01*
X125732562Y-109216214D01*
X125726237Y-109222553D01*
X125726214Y-109222562D01*
X124956285Y-109540497D01*
X124947330Y-109540488D01*
X124941005Y-109534149D01*
X124940724Y-109533396D01*
X124836695Y-109222553D01*
X124459505Y-108095492D01*
X124460129Y-108086562D01*
X124462324Y-108083512D01*
X124593510Y-107952326D01*
X124601782Y-107948900D01*
X124605490Y-107949504D01*
G37*
%TD.AperFunction*%
%TD*%
%TA.AperFunction,Conductor*%
%TO.N,+5V*%
G36*
X110742016Y-100224359D02*
G01*
X110747565Y-100226798D01*
X112074807Y-100810099D01*
X112081003Y-100816565D01*
X112080914Y-100825276D01*
X111762562Y-101596214D01*
X111756237Y-101602553D01*
X111756214Y-101602562D01*
X110985276Y-101920914D01*
X110976321Y-101920905D01*
X110970099Y-101914807D01*
X110384360Y-100582018D01*
X110384168Y-100573066D01*
X110386796Y-100569040D01*
X110729039Y-100226797D01*
X110737311Y-100223371D01*
X110742016Y-100224359D01*
G37*
%TD.AperFunction*%
%TD*%
%TA.AperFunction,Conductor*%
%TO.N,+5V*%
G36*
X86990117Y-108868036D02*
G01*
X87331963Y-109209882D01*
X87335390Y-109218155D01*
X87334245Y-109223203D01*
X86564780Y-110832085D01*
X86558119Y-110838070D01*
X86549758Y-110837851D01*
X85713784Y-110492562D01*
X85707446Y-110486236D01*
X85362148Y-109650241D01*
X85362157Y-109641286D01*
X85367913Y-109635219D01*
X86976797Y-108865753D01*
X86985738Y-108865276D01*
X86990117Y-108868036D01*
G37*
%TD.AperFunction*%
%TD*%
%TA.AperFunction,Conductor*%
%TO.N,/SEL*%
G36*
X112542669Y-103819511D02*
G01*
X112548994Y-103825850D01*
X112549275Y-103826603D01*
X112916337Y-104923400D01*
X113030494Y-105264504D01*
X113029870Y-105273437D01*
X113027672Y-105276490D01*
X112896490Y-105407672D01*
X112888217Y-105411099D01*
X112884504Y-105410494D01*
X112474972Y-105273437D01*
X112220235Y-105188184D01*
X111446603Y-104929275D01*
X111439845Y-104923400D01*
X111439221Y-104914467D01*
X111439497Y-104913726D01*
X111757438Y-104143783D01*
X111763759Y-104137448D01*
X112533715Y-103819502D01*
X112542669Y-103819511D01*
G37*
%TD.AperFunction*%
%TD*%
%TA.AperFunction,Conductor*%
%TO.N,/SEL*%
G36*
X129685490Y-107949504D02*
G01*
X131123396Y-108430724D01*
X131130154Y-108436599D01*
X131130778Y-108445532D01*
X131130497Y-108446285D01*
X130812562Y-109216214D01*
X130806237Y-109222553D01*
X130806214Y-109222562D01*
X130036285Y-109540497D01*
X130027330Y-109540488D01*
X130021005Y-109534149D01*
X130020724Y-109533396D01*
X129916695Y-109222553D01*
X129539505Y-108095492D01*
X129540129Y-108086562D01*
X129542324Y-108083512D01*
X129673510Y-107952326D01*
X129681782Y-107948900D01*
X129685490Y-107949504D01*
G37*
%TD.AperFunction*%
%TD*%
%TA.AperFunction,Conductor*%
%TO.N,/~{WREQ}*%
G36*
X114892313Y-107367193D02*
G01*
X114898909Y-107373249D01*
X114900000Y-107378183D01*
X114900000Y-107561816D01*
X114896573Y-107570089D01*
X114892313Y-107572806D01*
X114425305Y-107743330D01*
X114416358Y-107742949D01*
X114410496Y-107736851D01*
X114300883Y-107474509D01*
X114300857Y-107465556D01*
X114300862Y-107465542D01*
X114410496Y-107203147D01*
X114416848Y-107196836D01*
X114425302Y-107196669D01*
X114892313Y-107367193D01*
G37*
%TD.AperFunction*%
%TD*%
%TA.AperFunction,Conductor*%
%TO.N,/~{WREQ}*%
G36*
X119525490Y-107949504D02*
G01*
X120963396Y-108430724D01*
X120970154Y-108436599D01*
X120970778Y-108445532D01*
X120970497Y-108446285D01*
X120652562Y-109216214D01*
X120646237Y-109222553D01*
X120646214Y-109222562D01*
X119876285Y-109540497D01*
X119867330Y-109540488D01*
X119861005Y-109534149D01*
X119860724Y-109533396D01*
X119756695Y-109222553D01*
X119379505Y-108095492D01*
X119380129Y-108086562D01*
X119382324Y-108083512D01*
X119513510Y-107952326D01*
X119521782Y-107948900D01*
X119525490Y-107949504D01*
G37*
%TD.AperFunction*%
%TD*%
M02*
