%TF.GenerationSoftware,KiCad,Pcbnew,8.0.5*%
%TF.CreationDate,2024-12-02T19:35:40-06:00*%
%TF.ProjectId,Apple-II-HXC-Gotek-Adapter,4170706c-652d-4494-992d-4858432d476f,v1.0*%
%TF.SameCoordinates,Original*%
%TF.FileFunction,Soldermask,Top*%
%TF.FilePolarity,Negative*%
%FSLAX46Y46*%
G04 Gerber Fmt 4.6, Leading zero omitted, Abs format (unit mm)*
G04 Created by KiCad (PCBNEW 8.0.5) date 2024-12-02 19:35:40*
%MOMM*%
%LPD*%
G01*
G04 APERTURE LIST*
G04 Aperture macros list*
%AMRoundRect*
0 Rectangle with rounded corners*
0 $1 Rounding radius*
0 $2 $3 $4 $5 $6 $7 $8 $9 X,Y pos of 4 corners*
0 Add a 4 corners polygon primitive as box body*
4,1,4,$2,$3,$4,$5,$6,$7,$8,$9,$2,$3,0*
0 Add four circle primitives for the rounded corners*
1,1,$1+$1,$2,$3*
1,1,$1+$1,$4,$5*
1,1,$1+$1,$6,$7*
1,1,$1+$1,$8,$9*
0 Add four rect primitives between the rounded corners*
20,1,$1+$1,$2,$3,$4,$5,0*
20,1,$1+$1,$4,$5,$6,$7,0*
20,1,$1+$1,$6,$7,$8,$9,0*
20,1,$1+$1,$8,$9,$2,$3,0*%
G04 Aperture macros list end*
%ADD10R,1.700000X1.700000*%
%ADD11O,1.700000X1.700000*%
%ADD12C,1.700000*%
%ADD13RoundRect,0.250000X-0.600000X0.600000X-0.600000X-0.600000X0.600000X-0.600000X0.600000X0.600000X0*%
G04 APERTURE END LIST*
D10*
%TO.C,J4*%
X86995000Y-101600000D03*
D11*
X84455000Y-101600000D03*
%TD*%
D12*
%TO.C,J2*%
X101600000Y-104140000D03*
X101600000Y-101600000D03*
X104140000Y-104140000D03*
X104140000Y-101600000D03*
X106680000Y-104140000D03*
X106680000Y-101600000D03*
X109220000Y-104140000D03*
X109220000Y-101600000D03*
X111760000Y-104140000D03*
X111760000Y-101600000D03*
X114300000Y-104140000D03*
X114300000Y-101600000D03*
X116840000Y-104140000D03*
X116840000Y-101600000D03*
X119380000Y-104140000D03*
X119380000Y-101600000D03*
X121920000Y-104140000D03*
X121920000Y-101600000D03*
X124460000Y-104140000D03*
D13*
X124460000Y-101600000D03*
%TD*%
D10*
%TO.C,J3*%
X85710000Y-110490000D03*
D11*
X83170000Y-110490000D03*
X80630000Y-110490000D03*
X78090000Y-110490000D03*
%TD*%
D10*
%TO.C,J1*%
X92710000Y-111760000D03*
D11*
X92710000Y-109220000D03*
X95250000Y-111760000D03*
X95250000Y-109220000D03*
X97790000Y-111760000D03*
X97790000Y-109220000D03*
X100330000Y-111760000D03*
X100330000Y-109220000D03*
X102870000Y-111760000D03*
X102870000Y-109220000D03*
X105410000Y-111760000D03*
X105410000Y-109220000D03*
X107950000Y-111760000D03*
X107950000Y-109220000D03*
X110490000Y-111760000D03*
X110490000Y-109220000D03*
X113030000Y-111760000D03*
X113030000Y-109220000D03*
X115570000Y-111760000D03*
X115570000Y-109220000D03*
X118110000Y-111760000D03*
X118110000Y-109220000D03*
X120650000Y-111760000D03*
X120650000Y-109220000D03*
X123190000Y-111760000D03*
X123190000Y-109220000D03*
X125730000Y-111760000D03*
X125730000Y-109220000D03*
X128270000Y-111760000D03*
X128270000Y-109220000D03*
X130810000Y-111760000D03*
X130810000Y-109220000D03*
X133350000Y-111760000D03*
X133350000Y-109220000D03*
%TD*%
M02*
